<?xml version="1.0" encoding="UTF-8" standalone="no"?>
<svg
   style="cursor: move;"
   width="1920"
   height="955"
   version="1.1"
   id="svg18902"
   sodipodi:docname="nn_v2.svg"
   inkscape:version="1.2.2 (732a01da63, 2022-12-09)"
   xml:space="preserve"
   inkscape:export-filename="nn_illustration.png"
   inkscape:export-xdpi="500"
   inkscape:export-ydpi="500"
   xmlns:inkscape="http://www.inkscape.org/namespaces/inkscape"
   xmlns:sodipodi="http://sodipodi.sourceforge.net/DTD/sodipodi-0.dtd"
   xmlns:xlink="http://www.w3.org/1999/xlink"
   xmlns="http://www.w3.org/2000/svg"
   xmlns:svg="http://www.w3.org/2000/svg"><sodipodi:namedview
     id="namedview18904"
     pagecolor="#505050"
     bordercolor="#eeeeee"
     borderopacity="1"
     inkscape:showpageshadow="0"
     inkscape:pageopacity="0"
     inkscape:pagecheckerboard="0"
     inkscape:deskcolor="#505050"
     showgrid="false"
     inkscape:zoom="0.70710678"
     inkscape:cx="1129.9566"
     inkscape:cy="473.76154"
     inkscape:window-width="1920"
     inkscape:window-height="1017"
     inkscape:window-x="1358"
     inkscape:window-y="-8"
     inkscape:window-maximized="1"
     inkscape:current-layer="svg18902" /><g
     transform="matrix(1.0139595,0,0,1.0139595,-75.407217,13.821608)"
     id="g18895"><path
       class="link"
       style="fill:none;stroke:#000000;stroke-width:2.82941311;stroke-opacity:0.59;stroke-dasharray:none"
       d="m 689,452.5 c 160.5,0 160.5,-245 321,-245"
       id="path18837" /><path
       class="link"
       style="fill:none;stroke:#000000;stroke-width:2.82941311;stroke-opacity:0.59;stroke-dasharray:none"
       d="m 689,452.5 c 160.5,0 160.5,-175 321,-175"
       id="path18839" /><path
       class="link"
       style="fill:none;stroke:#000000;stroke-width:2.82941311;stroke-opacity:0.59;stroke-dasharray:none"
       d="m 689,452.5 c 160.5,0 160.5,-105 321,-105"
       id="path18841" /><path
       class="link"
       style="fill:none;stroke:#000000;stroke-width:2.82941311;stroke-opacity:0.59;stroke-dasharray:none"
       d="m 689,452.5 c 160.5,0 160.5,-35 321,-35"
       id="path18843" /><path
       class="link"
       style="fill:none;stroke:#000000;stroke-width:2.82941311;stroke-opacity:0.59;stroke-dasharray:none"
       d="m 689,452.5 c 160.5,0 160.5,35 321,35"
       id="path18845" /><path
       class="link"
       style="fill:none;stroke:#000000;stroke-width:2.82941311;stroke-opacity:0.59;stroke-dasharray:none"
       d="m 689,452.5 c 160.5,0 160.5,105 321,105"
       id="path18847" /><path
       class="link"
       style="fill:none;stroke:#000000;stroke-width:2.82941311;stroke-opacity:0.59;stroke-dasharray:none"
       d="m 689,452.5 c 160.5,0 160.5,175 321,175"
       id="path18849" /><path
       class="link"
       style="fill:none;stroke:#000000;stroke-width:2.82941311;stroke-opacity:0.59;stroke-dasharray:none"
       d="m 689,452.5 c 160.5,0 160.5,245 321,245"
       id="path18851" /><path
       class="link"
       style="fill:none;stroke:#000000;stroke-width:2.82941311;stroke-opacity:0.59;marker-end:;stroke-dasharray:none"
       marker-end=""
       d="m 689,452.5 c 160.5,0 160.5,315 321,315"
       id="path18853" /><path
       class="link"
       style="fill:none;stroke:#000000;stroke-width:2.82941311;stroke-opacity:0.59;stroke-dasharray:none"
       d="m 1010,137.5 c 160.5,0 160.5,315 321,315"
       id="path18855" /><path
       class="link"
       style="fill:none;stroke:#000000;stroke-width:2.82941311;stroke-opacity:0.59;stroke-dasharray:none"
       d="m 1010,207.5 c 160.5,0 160.5,245 321,245"
       id="path18857" /><path
       class="link"
       style="fill:none;stroke:#000000;stroke-width:2.82941311;stroke-opacity:0.59;stroke-dasharray:none"
       d="m 1010,277.5 c 160.5,0 160.5,175 321,175"
       id="path18859" /><path
       class="link"
       style="fill:none;stroke:#000000;stroke-width:2.82941311;stroke-opacity:0.59;stroke-dasharray:none"
       d="m 1010,347.5 c 160.5,0 160.5,105 321,105"
       id="path18861" /><path
       class="link"
       style="fill:none;stroke:#000000;stroke-width:2.82941311;stroke-opacity:0.59;stroke-dasharray:none"
       d="m 1010,417.5 c 160.5,0 160.5,35 321,35"
       id="path18863" /><path
       class="link"
       style="fill:none;stroke:#000000;stroke-width:2.82941311;stroke-opacity:0.59;stroke-dasharray:none"
       d="m 1010,487.5 c 160.5,0 160.5,-35 321,-35"
       id="path18865" /><path
       class="link"
       style="fill:none;stroke:#000000;stroke-width:2.82941311;stroke-opacity:0.59;stroke-dasharray:none"
       d="m 1010,557.5 c 160.5,0 160.5,-105 321,-105"
       id="path18867" /><path
       class="link"
       style="fill:none;stroke:#000000;stroke-width:2.82941311;stroke-opacity:0.59;stroke-dasharray:none"
       d="m 1010,627.5 c 160.5,0 160.5,-175 321,-175"
       id="path18869" /><path
       class="link"
       style="fill:none;stroke:#000000;stroke-width:2.82941311;stroke-opacity:0.59;stroke-dasharray:none"
       d="m 1010,697.5 c 160.5,0 160.5,-245 321,-245"
       id="path18871" /><path
       class="link"
       style="fill:none;stroke:#000000;stroke-width:2.82941311;stroke-opacity:0.59;stroke-dasharray:none"
       d="m 1010,767.5 c 160.5,0 160.5,-315 321,-315"
       id="path18873" /><path
       class="link"
       style="fill:none;stroke:#000000;stroke-width:2.82941311;stroke-opacity:0.59;stroke-dasharray:none"
       d="m 689,452.5 c 160.5,0 160.5,-315 321,-315"
       id="path18875" /><circle
       r="25"
       class="node"
       id="0_0"
       style="fill:url(#radialGradient34541);fill-opacity:1;stroke:url(#radialGradient34579);stroke-width:1.00004;stroke-dasharray:none;stroke-opacity:1"
       cx="689"
       cy="452.5" /><circle
       r="25"
       class="node"
       id="1_0"
       style="fill:#ffffff;stroke:#333333"
       cx="1010"
       cy="137.5" /><circle
       r="25"
       class="node"
       id="1_1"
       style="fill:#ffffff;stroke:#333333"
       cx="1010"
       cy="207.5" /><circle
       r="25"
       class="node"
       id="1_2"
       style="fill:#ffffff;stroke:#333333"
       cx="1010"
       cy="277.5" /><circle
       r="25"
       class="node"
       id="1_3"
       style="fill:#ffffff;stroke:#333333"
       cx="1010"
       cy="347.5" /><circle
       r="25"
       class="node"
       id="1_4"
       style="fill:#ffffff;stroke:#333333"
       cx="1010"
       cy="417.5" /><circle
       r="25"
       class="node"
       id="1_5"
       style="fill:#ffffff;stroke:#333333"
       cx="1010"
       cy="487.5" /><circle
       r="25"
       class="node"
       id="1_6"
       style="fill:#ffffff;stroke:#333333"
       cx="1010"
       cy="557.5" /><circle
       r="25"
       class="node"
       id="1_7"
       style="fill:#ffffff;stroke:#333333"
       cx="1010"
       cy="627.5" /><circle
       r="25"
       class="node"
       id="1_8"
       style="fill:#ffffff;stroke:#333333"
       cx="1010"
       cy="697.5" /><circle
       r="25"
       class="node"
       id="1_9"
       style="fill:#ffffff;stroke:#333333"
       cx="1010"
       cy="767.5" /><text
       class="text"
       dy="0.34999999em"
       style="font-size:12px"
       x="654"
       y="837.5"
       id="text18888" /><text
       class="text"
       dy="0.34999999em"
       style="font-size:12px"
       x="975"
       y="837.5"
       id="text18890" /><circle
       class="node"
       id="2_0"
       style="fill:url(#radialGradient19559);fill-opacity:1;stroke:url(#radialGradient34311);stroke-width:1.00004;stroke-dasharray:none;stroke-opacity:1"
       cx="1656.4542"
       cy="452.5"
       r="25" /><text
       class="text"
       dy="0.34999999em"
       style="font-size:12px"
       x="1296"
       y="837.5"
       id="text18893" /></g><defs
     id="defs18900"><marker
       markerWidth="1.05"
       markerHeight="1.9999999"
       refX="0"
       refY="0"
       orient="auto-start-reverse"
       id="marker96141"
       viewBox="0 0 1.05 2"
       inkscape:stockid="pin"
       style="overflow:visible"
       preserveAspectRatio="xMidYMid"
       inkscape:isstock="true"
       inkscape:collect="always"><path
         id="path96139"
         style="fill:context-stroke;stroke-linecap:butt"
         d="M 0,-1 H 0.585 C 1.33,-1 1.7,-1.6 2,-2 V 2 C 1.7,1.6 1.33,1 0.585,1 H 0 L -0.1,0 Z"
         sodipodi:nodetypes="sssssscsss"
         transform="scale(0.5)" /></marker><marker
       markerWidth="1.05"
       markerHeight="1.9999999"
       refX="0"
       refY="0"
       orient="auto-start-reverse"
       id="marker87286"
       viewBox="0 0 1.05 2"
       inkscape:stockid="pin"
       style="overflow:visible"
       preserveAspectRatio="xMidYMid"
       inkscape:isstock="true"
       inkscape:collect="always"><path
         id="path87284"
         style="fill:context-stroke;stroke-linecap:butt"
         d="M 0,-1 H 0.585 C 1.33,-1 1.7,-1.6 2,-2 V 2 C 1.7,1.6 1.33,1 0.585,1 H 0 L -0.1,0 Z"
         sodipodi:nodetypes="sssssscsss"
         transform="scale(0.5)" /></marker><marker
       markerWidth="1.05"
       markerHeight="1.9999999"
       refX="0"
       refY="0"
       orient="auto-start-reverse"
       id="Cap4"
       viewBox="0 0 1.05 2"
       inkscape:stockid="pin"
       style="overflow:visible"
       preserveAspectRatio="xMidYMid"
       inkscape:isstock="true"
       inkscape:collect="always"><path
         id="path104971"
         style="fill:context-stroke;stroke-linecap:butt"
         d="M 0,-1 H 0.585 C 1.33,-1 1.7,-1.6 2,-2 V 2 C 1.7,1.6 1.33,1 0.585,1 H 0 L -0.1,0 Z"
         sodipodi:nodetypes="sssssscsss"
         transform="scale(0.5)" /></marker><linearGradient
       inkscape:collect="always"
       id="linearGradient34389"><stop
         style="stop-color:#000000;stop-opacity:1;"
         offset="0"
         id="stop34385" /><stop
         style="stop-color:#000000;stop-opacity:0;"
         offset="0.27222222"
         id="stop34387" /></linearGradient><linearGradient
       inkscape:collect="always"
       id="linearGradient34271"><stop
         style="stop-color:#000000;stop-opacity:1;"
         offset="0"
         id="stop34267" /><stop
         style="stop-color:#000000;stop-opacity:0;"
         offset="1"
         id="stop34269" /></linearGradient><marker
       style="overflow:visible"
       id="TriangleStart"
       refX="0"
       refY="0"
       orient="auto-start-reverse"
       inkscape:stockid="TriangleStart"
       markerWidth="5.3244081"
       markerHeight="6.155385"
       viewBox="0 0 5.3244081 6.1553851"
       inkscape:isstock="true"
       inkscape:collect="always"
       preserveAspectRatio="xMidYMid"><path
         transform="scale(0.5)"
         style="fill:context-stroke;fill-rule:evenodd;stroke:context-stroke;stroke-width:1pt"
         d="M 5.77,0 -2.88,5 V -5 Z"
         id="path135" /></marker><linearGradient
       inkscape:collect="always"
       id="linearGradient19557"><stop
         style="stop-color:#ffffff;stop-opacity:1;"
         offset="0.65444446"
         id="stop19553" /><stop
         style="stop-color:#ff1111;stop-opacity:0;"
         offset="1"
         id="stop19555" /></linearGradient><linearGradient
       inkscape:collect="always"
       id="linearGradient19425"><stop
         style="stop-color:#ffffff;stop-opacity:1;"
         offset="0.65277779"
         id="stop19421" /><stop
         style="stop-color:#0023d8;stop-opacity:0;"
         offset="1"
         id="stop19423" /></linearGradient><marker
       id="arrow"
       viewBox="0 -5 10 10"
       markerWidth="7"
       markerHeight="7"
       orient="auto"
       refX="82"><path
         d="M0,-5L10,0L0,5"
         style="stroke: rgb(80, 80, 80); fill: rgb(0, 0, 0);"
         id="path18897" /></marker><radialGradient
       inkscape:collect="always"
       xlink:href="#linearGradient19557"
       id="radialGradient19559"
       cx="1331"
       cy="452.5"
       fx="1331"
       fy="452.5"
       r="25.5"
       gradientUnits="userSpaceOnUse"
       gradientTransform="translate(325.45699)" /><marker
       style="overflow:visible"
       id="TriangleStart-1"
       refX="0"
       refY="0"
       orient="auto-start-reverse"
       inkscape:stockid="TriangleStart"
       markerWidth="5.3244081"
       markerHeight="6.155385"
       viewBox="0 0 5.3244081 6.1553851"
       inkscape:isstock="true"
       inkscape:collect="always"
       preserveAspectRatio="xMidYMid"><path
         transform="scale(0.5)"
         style="fill:context-stroke;fill-rule:evenodd;stroke:context-stroke;stroke-width:1pt"
         d="M 5.77,0 -2.88,5 V -5 Z"
         id="path135-2" /></marker><marker
       style="overflow:visible"
       id="TriangleStart-1-7"
       refX="0"
       refY="0"
       orient="auto-start-reverse"
       inkscape:stockid="TriangleStart"
       markerWidth="5.3244081"
       markerHeight="6.155385"
       viewBox="0 0 5.3244081 6.1553851"
       inkscape:isstock="true"
       inkscape:collect="always"
       preserveAspectRatio="xMidYMid"><path
         transform="scale(0.5)"
         style="fill:context-stroke;fill-rule:evenodd;stroke:context-stroke;stroke-width:1pt"
         d="M 5.77,0 -2.88,5 V -5 Z"
         id="path135-2-2" /></marker><marker
       style="overflow:visible"
       id="TriangleStart-1-2"
       refX="0"
       refY="0"
       orient="auto-start-reverse"
       inkscape:stockid="TriangleStart"
       markerWidth="5.3244081"
       markerHeight="6.155385"
       viewBox="0 0 5.3244081 6.1553851"
       inkscape:isstock="true"
       inkscape:collect="always"
       preserveAspectRatio="xMidYMid"><path
         transform="scale(0.5)"
         style="fill:context-stroke;fill-rule:evenodd;stroke:context-stroke;stroke-width:1pt"
         d="M 5.77,0 -2.88,5 V -5 Z"
         id="path135-2-0" /></marker><radialGradient
       inkscape:collect="always"
       xlink:href="#linearGradient34389"
       id="radialGradient34311"
       cx="1469.0723"
       cy="452.5"
       fx="1469.0723"
       fy="452.5"
       r="25.50002"
       gradientUnits="userSpaceOnUse"
       gradientTransform="translate(187.38426)" /><radialGradient
       inkscape:collect="always"
       xlink:href="#linearGradient19425"
       id="radialGradient34541"
       gradientUnits="userSpaceOnUse"
       cx="689"
       cy="452.5"
       fx="689"
       fy="452.5"
       r="25.50002" /><radialGradient
       inkscape:collect="always"
       xlink:href="#linearGradient34271"
       id="radialGradient34579"
       gradientUnits="userSpaceOnUse"
       cx="689"
       cy="452.5"
       fx="689"
       fy="452.5"
       r="25.50002" /><marker
       style="overflow:visible"
       id="TriangleStart-1-2-1"
       refX="0"
       refY="0"
       orient="auto-start-reverse"
       inkscape:stockid="TriangleStart"
       markerWidth="5.3244081"
       markerHeight="6.155385"
       viewBox="0 0 5.3244081 6.1553851"
       inkscape:isstock="true"
       inkscape:collect="always"
       preserveAspectRatio="xMidYMid"><path
         transform="scale(0.5)"
         style="fill:context-stroke;fill-rule:evenodd;stroke:context-stroke;stroke-width:1pt"
         d="M 5.77,0 -2.88,5 V -5 Z"
         id="path135-2-0-8" /></marker><marker
       style="overflow:visible"
       id="TriangleStart-1-2-0"
       refX="0"
       refY="0"
       orient="auto-start-reverse"
       inkscape:stockid="TriangleStart"
       markerWidth="5.3244081"
       markerHeight="6.155385"
       viewBox="0 0 5.3244081 6.1553851"
       inkscape:isstock="true"
       inkscape:collect="always"
       preserveAspectRatio="xMidYMid"><path
         transform="scale(0.5)"
         style="fill:context-stroke;fill-rule:evenodd;stroke:context-stroke;stroke-width:1pt"
         d="M 5.77,0 -2.88,5 V -5 Z"
         id="path135-2-0-6" /></marker><marker
       style="overflow:visible"
       id="TriangleStart-1-2-9"
       refX="0"
       refY="0"
       orient="auto-start-reverse"
       inkscape:stockid="TriangleStart"
       markerWidth="5.3244081"
       markerHeight="6.155385"
       viewBox="0 0 5.3244081 6.1553851"
       inkscape:isstock="true"
       inkscape:collect="always"
       preserveAspectRatio="xMidYMid"><path
         transform="scale(0.5)"
         style="fill:context-stroke;fill-rule:evenodd;stroke:context-stroke;stroke-width:1pt"
         d="M 5.77,0 -2.88,5 V -5 Z"
         id="path135-2-0-3" /></marker><marker
       style="overflow:visible"
       id="TriangleStart-1-2-3"
       refX="0"
       refY="0"
       orient="auto-start-reverse"
       inkscape:stockid="TriangleStart"
       markerWidth="5.3244081"
       markerHeight="6.155385"
       viewBox="0 0 5.3244081 6.1553851"
       inkscape:isstock="true"
       inkscape:collect="always"
       preserveAspectRatio="xMidYMid"><path
         transform="scale(0.5)"
         style="fill:context-stroke;fill-rule:evenodd;stroke:context-stroke;stroke-width:1pt"
         d="M 5.77,0 -2.88,5 V -5 Z"
         id="path135-2-0-2" /></marker><marker
       style="overflow:visible"
       id="TriangleStart-1-2-32"
       refX="0"
       refY="0"
       orient="auto-start-reverse"
       inkscape:stockid="TriangleStart"
       markerWidth="5.3244081"
       markerHeight="6.155385"
       viewBox="0 0 5.3244081 6.1553851"
       inkscape:isstock="true"
       inkscape:collect="always"
       preserveAspectRatio="xMidYMid"><path
         transform="scale(0.5)"
         style="fill:context-stroke;fill-rule:evenodd;stroke:context-stroke;stroke-width:1pt"
         d="M 5.77,0 -2.88,5 V -5 Z"
         id="path135-2-0-4" /></marker><marker
       style="overflow:visible"
       id="TriangleStart-1-2-97"
       refX="0"
       refY="0"
       orient="auto-start-reverse"
       inkscape:stockid="TriangleStart"
       markerWidth="5.3244081"
       markerHeight="6.155385"
       viewBox="0 0 5.3244081 6.1553851"
       inkscape:isstock="true"
       inkscape:collect="always"
       preserveAspectRatio="xMidYMid"><path
         transform="scale(0.5)"
         style="fill:context-stroke;fill-rule:evenodd;stroke:context-stroke;stroke-width:1pt"
         d="M 5.77,0 -2.88,5 V -5 Z"
         id="path135-2-0-26" /></marker><marker
       style="overflow:visible"
       id="TriangleStart-1-2-6"
       refX="0"
       refY="0"
       orient="auto-start-reverse"
       inkscape:stockid="TriangleStart"
       markerWidth="5.3244081"
       markerHeight="6.155385"
       viewBox="0 0 5.3244081 6.1553851"
       inkscape:isstock="true"
       inkscape:collect="always"
       preserveAspectRatio="xMidYMid"><path
         transform="scale(0.5)"
         style="fill:context-stroke;fill-rule:evenodd;stroke:context-stroke;stroke-width:1pt"
         d="M 5.77,0 -2.88,5 V -5 Z"
         id="path135-2-0-0" /></marker></defs><path
     style="fill:#f7f7f7;fill-opacity:1;stroke:#000000;stroke-width:2.88113607;stroke-dasharray:none"
     d="m 1268.8724,472.63925 208.3429,-0.0291"
     id="path21781"
     sodipodi:nodetypes="cc" /><path
     style="fill:#f7f7f7;fill-opacity:1;stroke:#000000;stroke-width:0.947;stroke-dasharray:none;marker-end:url(#TriangleStart)"
     d="m 919.71054,788.29592 0.9191,0.22424"
     id="path31352"
     sodipodi:nodetypes="cc" /><path
     style="fill:#f7f7f7;fill-opacity:1;stroke:#000000;stroke-width:0.947;stroke-dasharray:none;marker-end:url(#TriangleStart-1)"
     d="m 919.71341,718.139 0.92801,0.18395"
     id="path31352-0"
     sodipodi:nodetypes="cc" /><path
     style="fill:#f7f7f7;fill-opacity:1;stroke:#000000;stroke-width:0.947;stroke-dasharray:none;marker-end:url(#TriangleStart-1-7)"
     d="m 919.58056,647.92258 0.93233,0.16061"
     id="path31352-0-1"
     sodipodi:nodetypes="cc" /><path
     style="fill:#f7f7f7;fill-opacity:1;stroke:#000000;stroke-width:0.947;stroke-dasharray:none;marker-end:url(#TriangleStart-1-2)"
     d="m 919.55789,577.92673 0.93595,0.0646"
     id="path31352-0-0"
     sodipodi:nodetypes="cc" /><path
     style="fill:#f7f7f7;fill-opacity:1;stroke:#000000;stroke-width:0.947;stroke-dasharray:none;marker-end:url(#TriangleStart-1-2-1)"
     d="m 919.47265,507.5855 0.93788,0.0235"
     id="path31352-0-0-0"
     sodipodi:nodetypes="cc" /><path
     style="fill:#f7f7f7;fill-opacity:1;stroke:#000000;stroke-width:0.947;stroke-dasharray:none;marker-end:url(#TriangleStart-1-2-0)"
     d="m 919.56676,437.56383 0.956,-0.0386"
     id="path31352-0-0-7"
     sodipodi:nodetypes="cc" /><path
     style="fill:#f7f7f7;fill-opacity:1;stroke:#000000;stroke-width:0.947;stroke-dasharray:none;marker-end:url(#TriangleStart-1-2-9)"
     d="m 919.61073,367.44987 0.93537,-0.0725"
     id="path31352-0-0-3"
     sodipodi:nodetypes="cc" /><path
     style="fill:#f7f7f7;fill-opacity:1;stroke:#000000;stroke-width:0.947;stroke-dasharray:none;marker-end:url(#TriangleStart-1-2-3)"
     d="m 919.68701,297.27326 0.92919,-0.12958"
     id="path31352-0-0-4"
     sodipodi:nodetypes="cc" /><path
     style="fill:#f7f7f7;fill-opacity:1;stroke:#000000;stroke-width:0.947;stroke-dasharray:none;marker-end:url(#TriangleStart-1-2-32)"
     d="m 919.66267,227.07889 0.92225,-0.1721"
     id="path31352-0-0-1"
     sodipodi:nodetypes="cc" /><path
     style="fill:#f7f7f7;fill-opacity:1;stroke:#000000;stroke-width:0.947;stroke-dasharray:none;marker-end:url(#TriangleStart-1-2-97)"
     d="m 919.83641,156.84487 0.90617,-0.24296"
     id="path31352-0-0-74"
     sodipodi:nodetypes="cc" /><path
     style="fill:#f7f7f7;fill-opacity:1;stroke:#000000;stroke-width:2.88114;stroke-dasharray:none;marker-end:url(#TriangleStart-1-2-6)"
     d="m 1473.9104,472.57606 95.8066,-0.17878"
     id="path31352-0-0-5"
     sodipodi:nodetypes="cc" /><path
     style="fill:#000000;fill-opacity:0;stroke:#000000;stroke-width:1.014;stroke-dasharray:none;stroke-opacity:0"
     id="path59222"
     sodipodi:type="arc"
     sodipodi:cx="554.90479"
     sodipodi:cy="551.70758"
     sodipodi:rx="24.925514"
     sodipodi:ry="24.925514"
     sodipodi:start="3.9106061"
     sodipodi:end="3.9093025"
     sodipodi:open="true"
     sodipodi:arc-type="arc"
     d="m 536.99338,534.37371 a 24.925514,24.925514 0 0 1 35.23943,-0.58318 24.925514,24.925514 0 0 1 0.59467,35.23924 24.925514,24.925514 0 0 1 -35.23904,0.60615 24.925514,24.925514 0 0 1 -0.61764,-35.23884"
     transform="rotate(-7.6781829)" /><path
     style="fill:#000000;fill-opacity:0;stroke:#000000;stroke-width:0.586385;stroke-dasharray:none;stroke-opacity:0"
     id="path72628"
     sodipodi:type="arc"
     sodipodi:cx="955.66583"
     sodipodi:cy="-105.70631"
     sodipodi:rx="32.962482"
     sodipodi:ry="32.962482"
     sodipodi:start="3.9106061"
     sodipodi:end="3.9093025"
     sodipodi:open="true"
     sodipodi:arc-type="arc"
     d="m 931.97909,-128.62929 a 32.962482,32.962482 0 0 1 46.60201,-0.77123 32.962482,32.962482 0 0 1 0.78641,46.601758 32.962482,32.962482 0 0 1 -46.6015,0.8016 32.962482,32.962482 0 0 1 -0.81678,-46.601238"
     transform="rotate(15.55863)" /><text
     xml:space="preserve"
     style="font-style:normal;font-variant:normal;font-weight:normal;font-stretch:normal;font-size:16px;font-family:'Times New Roman';-inkscape-font-specification:'Times New Roman, ';fill:#000000;fill-opacity:0;stroke:#000000;stroke-width:1.014;stroke-dasharray:none;stroke-opacity:1"
     x="942.5"
     y="121.5"
     id="text73054"><tspan
       sodipodi:role="line"
       id="tspan73052"
       x="942.5"
       y="121.5" /></text><text
     xml:space="preserve"
     style="font-style:normal;font-variant:normal;font-weight:normal;font-stretch:normal;font-size:16px;font-family:'Times New Roman';-inkscape-font-specification:'Times New Roman, ';fill:#000000;fill-opacity:1;stroke:#000000;stroke-width:1.014;stroke-dasharray:none;stroke-opacity:1"
     x="911.10706"
     y="118.26361"
     id="text73266"><tspan
       sodipodi:role="line"
       id="tspan73264"
       x="911.10706"
       y="118.26361" /></text><path
     style="fill:#000000;fill-opacity:0;stroke:#000000;stroke-width:2.114;stroke-dasharray:none;stroke-opacity:1;marker-end:url(#Cap4)"
     d="m 657.16421,377.80025 c 23.36119,-8.28375 30.43728,-12.60903 44.78249,-43.06192"
     id="path81677"
     sodipodi:nodetypes="cc" /><path
     style="fill:#000000;fill-opacity:0;stroke:#000000;stroke-width:2.114;stroke-dasharray:none;stroke-opacity:1;marker-start:url(#marker87286);marker-end:url(#TriangleStart-1-2-0)"
     d="m 836.49747,124.04668 c 28.87723,-47.092602 41.854,-56.796686 75.50684,-65.8647"
     id="path87114"
     sodipodi:nodetypes="cc" /><path
     style="fill:#000000;fill-opacity:0;stroke:#000000;stroke-width:2.114;stroke-dasharray:none;stroke-opacity:1;marker-start:url(#marker96141)"
     d="M 985.29111,55.818019 C 1118.6646,76.13168 1142.5427,374.49539 1222.1716,389.24695"
     id="path95575"
     sodipodi:nodetypes="cc" /><path
     style="fill:#000000;fill-opacity:0;stroke:#000000;stroke-width:2.114;stroke-dasharray:none;stroke-opacity:1;marker-start:url(#TriangleStart-1-2-3);marker-end:url(#marker96141)"
     d="m 1564.7929,387 c -5.2125,0.16667 -15.0984,0.33333 -32.0277,0.5"
     id="path97617"
     sodipodi:nodetypes="cc" /><circle
     style="fill:#000000;fill-opacity:0;stroke:#000000;stroke-width:1.22389;stroke-dasharray:none;stroke-opacity:0"
     id="path99706"
     cx="437.62878"
     cy="648.74756"
     r="33.64505"
     transform="matrix(-0.05430645,0.99852432,0.99852432,0.05430645,0,0)" /><text
     xml:space="preserve"
     style="font-style:normal;font-variant:normal;font-weight:normal;font-stretch:normal;font-size:32px;font-family:'Times New Roman';-inkscape-font-specification:'Times New Roman, ';fill:#000000;fill-opacity:1;stroke:#000000;stroke-width:1.014;stroke-dasharray:none;stroke-opacity:0"
     id="text99910"
     x="590.55511"
     y="519.60779">Input</text><text
     xml:space="preserve"
     style="font-style:normal;font-variant:normal;font-weight:normal;font-stretch:normal;font-size:32px;font-family:'Times New Roman';-inkscape-font-specification:'Times New Roman, ';fill:#000000;fill-opacity:1;stroke:#000000;stroke-width:1.014;stroke-dasharray:none;stroke-opacity:0"
     id="text99910-68"
     x="908.35352"
     y="845.37891">Latent</text><text
     xml:space="preserve"
     style="font-weight:bold;font-size:32px;font-family:'Times New Roman';-inkscape-font-specification:'Times New Roman,  Bold';text-align:center;text-anchor:middle;fill:#000000;fill-opacity:1;stroke:#000000;stroke-width:1.305;stroke-opacity:0"
     x="623.87531"
     y="444.7077"
     id="text1503"><tspan
       sodipodi:role="line"
       id="tspan1501"
       x="623.87531"
       y="444.7077"
       style="font-style:normal;font-variant:normal;font-weight:normal;font-stretch:normal;font-family:'Times New Roman';-inkscape-font-specification:'Times New Roman, ';font-size:32px">vector</tspan></text><text
     xml:space="preserve"
     style="font-style:normal;font-variant:normal;font-weight:normal;font-stretch:normal;font-size:32px;font-family:'Times New Roman';-inkscape-font-specification:'Times New Roman, ';fill:#000000;fill-opacity:1;stroke:#000000;stroke-width:1.014;stroke-dasharray:none;stroke-opacity:0"
     id="text2593"
     x="1559.3124"
     y="519.60779">Output</text><text
     xml:space="preserve"
     style="font-weight:bold;font-size:32px;font-family:'Times New Roman';-inkscape-font-specification:'Times New Roman,  Bold';text-align:center;text-anchor:middle;fill:#000000;fill-opacity:1;stroke:#000000;stroke-width:1.305;stroke-opacity:0"
     x="1603.8752"
     y="444.7077"
     id="text2597"><tspan
       sodipodi:role="line"
       id="tspan2595"
       x="1603.8752"
       y="444.7077"
       style="font-style:normal;font-variant:normal;font-weight:normal;font-stretch:normal;font-family:'Times New Roman';-inkscape-font-specification:'Times New Roman, ';font-size:32px">vector</tspan></text><path
     style="fill:#000000;stroke-width:0.586208"
     d="m 611.43943,383.9277 c 0,-19.67053 0.11292,-22.569 0.87931,-22.569 0.76639,0 0.87931,2.89847 0.87931,22.569 0,19.67054 -0.11292,22.56901 -0.87931,22.56901 -0.76639,0 -0.87931,-2.89847 -0.87931,-22.56901 z m 25.20693,22.18774 c 0,-0.2097 1.86059,-5.25557 4.13463,-11.21305 3.44563,-9.02677 4.04071,-11.0879 3.57104,-12.36875 -0.30997,-0.84533 -2.17054,-5.72759 -4.13462,-10.84945 -1.96407,-5.12186 -3.57105,-9.5404 -3.57105,-9.81898 0,-0.27858 0.37388,-0.50651 0.83083,-0.50651 0.45696,0 1.29222,1.25302 1.85614,2.78448 0.56392,1.53148 2.43229,6.43755 4.15194,10.9024 1.71965,4.46485 3.12663,8.49599 3.12663,8.9581 0,0.4621 -1.33778,4.30162 -2.97287,8.53226 -1.63507,4.23064 -3.50058,9.10253 -4.14556,10.82642 -0.66515,1.77778 -1.53505,3.13435 -2.00991,3.13435 -0.46045,0 -0.8372,-0.17157 -0.8372,-0.38127 z m -13.09881,-11.2425 c -1.44444,-1.59608 -1.19058,-4.02678 1.00454,-9.61823 2.5775,-6.56547 2.86489,-7.80432 1.97653,-8.52001 -1.16733,-0.94045 -3.09901,0.17252 -4.15246,2.3925 -0.53415,1.12566 -0.97119,2.33653 -0.97119,2.69082 0,0.35429 -0.2638,0.64416 -0.58621,0.64416 -0.87715,0 -0.71602,-0.96469 0.58812,-3.521 0.64588,-1.26603 1.7141,-2.59075 2.37382,-2.94382 1.91572,-1.02527 4.22785,-0.45703 5.19677,1.27716 0.81078,1.45115 0.70555,1.99902 -1.59358,8.29721 -2.77831,7.61085 -3.00834,9.20082 -1.33113,9.20082 1.45882,0 2.90997,-1.47382 4.01744,-4.08021 0.48504,-1.14151 1.00229,-1.73193 1.14977,-1.31242 0.41707,1.18631 -1.02598,4.13834 -2.64581,5.4125 -1.83377,1.44244 -3.76609,1.47339 -5.02661,0.0806 z m 4.41331,-27.50561 c 0.21452,-1.86432 2.57461,-2.64949 3.18474,-1.05951 0.45988,1.19845 -0.77011,2.67158 -2.23065,2.67158 -0.89733,0 -1.10014,-0.34268 -0.95409,-1.61207 z"
     id="path6537" /><path
     style="fill:#000000;stroke-width:0.586208"
     d="m 1581.4652,385.3027 c 0,-19.67053 0.1129,-22.56899 0.8793,-22.56899 0.7664,0 0.8793,2.89846 0.8793,22.56899 0,19.67054 -0.1129,22.56901 -0.8793,22.56901 -0.7664,0 -0.8793,-2.89847 -0.8793,-22.56901 z m 31.6552,21.88931 c 0,-0.58396 1.7476,-5.34 6.9655,-18.9564 l 1.1224,-2.92918 -1.4661,-3.81221 c -3.4041,-8.8513 -6.6218,-17.70068 -6.6218,-18.2115 0,-1.12563 1.6948,-0.49963 2.0845,0.76995 0.2227,0.72543 2.1136,5.78903 4.2021,11.25245 l 3.7973,9.93347 -3.0499,7.94586 c -1.6774,4.37023 -3.5748,9.46269 -4.2164,11.31656 -0.6768,1.95544 -1.5132,3.3707 -1.9921,3.3707 -0.454,0 -0.8255,-0.30586 -0.8255,-0.6797 z m -18.6474,-10.6651 c -7.1826,-3.98571 -2.7326,-17.61258 6.4261,-19.67821 6.2833,-1.41709 10.6873,5.2107 7.8981,11.88617 -2.5755,6.16412 -9.9898,10.19729 -14.3242,7.79204 z m 7.4728,-2.46773 c 3.5907,-3.24397 5.6637,-10.81242 3.8971,-14.22853 -2.5499,-4.931 -8.8828,-1.34046 -11.1316,6.31122 -1.1071,3.76716 -1.1847,6.09249 -0.2618,7.84594 1.5374,2.92082 4.3131,2.94725 7.4963,0.0714 z"
     id="path7319" /><path
     style="fill:#000000;stroke-width:0.529053"
     d="m 805.32653,239.26121 c -0.21465,-0.13418 0.0842,-1.2352 0.66415,-2.44671 0.57992,-1.21153 0.97865,-2.53117 0.88606,-2.93255 -0.17352,-0.75226 -15.70367,-17.14966 -17.0917,-18.04614 -0.6484,-0.41885 -1.03589,-0.0895 -2.32922,1.97939 -2.46502,3.94326 -2.50047,5.75222 -0.18475,9.42676 2.38347,3.78205 1.497,3.47067 -1.89493,-0.66561 l -2.4587,-2.99827 6.37392,-10.46419 6.37391,-10.46418 0.9809,0.61319 c 1.6983,1.06165 6.05264,5.13941 5.84415,5.47293 -0.10969,0.17548 -1.31552,-0.49624 -2.67961,-1.4927 -1.9676,-1.4373 -2.71081,-1.73546 -3.59617,-1.44267 -1.55965,0.51579 -5.03304,5.43381 -4.63592,6.56412 0.16706,0.47557 4.04229,4.76515 8.6116,9.53241 7.56637,7.89413 8.39875,8.63362 9.32656,8.28566 0.56031,-0.21014 1.43631,-1.05004 1.94667,-1.86646 0.51036,-0.81642 1.12981,-1.3582 1.37654,-1.20397 0.27692,0.17311 -1.00031,2.59827 -3.33729,6.33671 -2.08225,3.33094 -3.96153,5.94646 -4.17617,5.81228 z m -33.21047,44.98078 c -5.10649,0.9726 -8.07856,0.93648 -14.34707,-0.17441 -10.95691,-1.94177 -24.41412,-9.36239 -32.84549,-18.11181 -5.52059,-5.72885 -10.01221,-13.67424 -11.05984,-19.56424 -0.7648,-4.29984 0.31271,-4.00133 1.88118,0.52118 2.91301,8.39926 8.39747,15.25573 18.07725,22.59944 12.71681,9.64782 28.16144,14.70243 39.38773,12.89056 3.71747,-0.59999 4.1628,-0.54993 3.5683,0.40108 -0.21474,0.34352 -2.31268,0.99072 -4.66206,1.4382 z m 72.15898,-110.47753 c -0.26338,-0.16465 -1.03802,-1.95712 -1.72142,-3.9833 -5.57156,-16.51884 -28.34674,-33.07316 -48.3402,-35.13644 -2.90124,-0.29939 -6.89896,-0.27327 -8.88385,0.0581 -5.4803,0.91487 -4.55537,-0.60114 1.08015,-1.77046 17.46079,-3.62287 42.66697,8.96155 53.57344,26.74705 3.53498,5.7646 6.48878,15.4584 4.29187,14.08506 z m -115.04198,148.5955 c -2.11927,0.48886 -3.69905,-1.49695 -2.59539,-3.26247 0.67088,-1.0732 2.71533,0.18095 2.66976,1.63774 -0.0277,0.88465 0.12989,0.81483 0.90586,-0.40142 1.24398,-1.94964 0.57647,-2.84716 -7.95572,-10.69777 -3.70347,-3.40761 -7.10915,-6.5739 -7.56819,-7.03618 -0.71457,-0.71962 -0.99007,-0.63786 -1.91514,0.56839 -1.38466,1.80558 -2.10041,1.13739 -1.0334,-0.96472 0.77913,-1.53496 0.72137,-1.69646 -1.2848,-3.59133 -3.44727,-3.25605 -4.50117,-5.10931 -4.2343,-7.44593 0.21708,-1.90067 0.38216,-2.18717 1.66652,-2.89222 1.70351,-0.93515 3.74746,-0.21225 3.86238,1.36606 0.0443,0.60837 -0.20515,1.32138 -0.55434,1.58447 -0.84442,0.63623 -2.40417,-0.38182 -2.19905,-1.43534 0.25115,-1.29004 -0.5624,-1.45742 -1.30556,-0.26862 -0.92693,1.4828 -0.40185,2.65591 2.40875,5.38142 3.63787,3.52775 3.74915,3.56555 5.11398,1.73729 1.54069,-2.06387 2.24002,-1.36628 1.00351,1.00102 l -0.95428,1.82693 6.33592,5.97121 c 7.18684,6.7732 9.65147,9.7829 10.08755,12.31847 0.35191,2.04622 -0.80888,4.22347 -2.45405,4.60298 z m 8.93615,-17.52749 c -0.31323,-0.002 -1.7586,-1.30055 -3.21195,-2.88656 -3.06955,-3.34975 -4.74707,-4.53252 -5.26142,-3.70972 -0.52023,0.8322 -0.0981,2.24717 0.84655,2.83769 0.44413,0.27764 0.6728,0.72027 0.50816,0.98364 -0.38317,0.61295 -1.81389,-0.99967 -2.28763,-2.57848 -0.46264,-1.54178 0.35985,-2.79519 1.99578,-3.04145 1.2863,-0.19363 1.30997,-0.23145 1.33164,-2.12507 0.0272,-2.44907 0.81813,-3.71227 2.7377,-4.37266 l 1.51989,-0.52282 2.3361,2.58856 c 3.7551,4.16098 4.43822,4.715 4.90095,3.97475 0.46684,-0.74677 -0.0555,-3.00984 -0.80249,-3.4768 -0.27443,-0.17156 -0.49738,-0.62177 -0.49545,-1.00048 0.005,-0.97916 1.63063,0.97028 2.09134,2.50796 0.23537,0.78559 0.0146,1.66659 -0.62599,2.49851 -0.81529,1.05873 -1.22773,1.17159 -2.34197,0.64083 -0.74384,-0.35433 -2.08565,-1.54407 -2.98182,-2.64389 -3.01951,-3.70576 -5.10366,-4.16395 -5.67484,-1.24761 -0.41606,2.12437 0.46236,3.97279 3.42797,7.21325 2.67054,2.91807 3.33131,4.3675 1.98791,4.36062 z m 10.45704,-47.35882 c -0.6,-0.37508 2.80827,-5.96944 30.00492,-49.25048 20.16013,-32.08303 30.85968,-48.76962 31.2005,-48.65902 0.34282,0.11126 -9.83098,16.81067 -30.00491,49.25046 -27.05679,43.50751 -30.60049,49.03412 -31.20051,48.65904 z m 24.74567,-51.00196 c -0.83268,-0.005 -11.76866,-11.38903 -12.09035,-12.58651 -0.45733,-1.70234 1.2028,-0.93216 3.72318,1.72728 3.40777,3.59576 4.81562,4.32662 6.04866,3.14003 1.48259,-1.42675 1.09636,-4.07878 -0.90968,-6.24624 -0.90015,-0.97258 -2.35606,-2.52631 -3.23535,-3.45272 -1.03697,-1.09253 -1.44211,-1.93489 -1.15303,-2.39733 0.48933,-0.78278 1.43885,-0.0758 5.59076,4.16275 3.16908,3.23521 5.06283,2.67222 2.68101,-0.79704 -0.77133,-1.12348 -0.79626,-1.3536 -0.10162,-0.9378 2.30826,1.38175 2.1235,5.09003 -0.26971,5.41273 -0.89178,0.12026 -1.00117,0.29526 -0.93805,1.50058 0.0393,0.75046 -0.46348,2.22021 -1.1173,3.26611 -1.16372,1.8616 -1.15501,1.93704 0.41275,3.58155 0.88083,0.92396 1.80095,1.92229 2.0447,2.21854 0.52236,0.63484 0.14361,1.41231 -0.68597,1.40807 z m -27.27121,36.23152 c -1.62783,-0.33109 -6.31072,-1.24608 -10.40642,-2.03327 -5.22918,-1.00507 -7.81086,-1.75048 -8.66948,-2.50315 -1.3683,-1.19945 -12.39196,-15.60793 -12.69895,-16.59816 -0.12382,-0.39935 0.0674,-0.69472 0.51698,-0.7984 0.46526,-0.10732 2.89352,2.74117 6.97987,8.18782 l 6.26641,8.3524 2.47177,0.59641 c 1.35947,0.32802 6.08602,1.29542 10.50342,2.14976 4.41742,0.85436 8.13334,1.75935 8.2576,2.01109 0.50629,1.02563 -0.41228,1.20685 -3.22119,0.63552 z m 38.43489,-56.79603 c -0.274,0.0632 -8.25355,-4.73314 -17.73234,-10.65853 -13.58788,-8.4941 -17.12047,-10.8674 -16.6968,-11.21745 0.41459,-0.34254 4.43403,1.95453 17.59295,10.05425 9.38056,5.77405 17.11829,10.7702 17.19497,11.10252 0.0766,0.33235 -0.0847,0.656 -0.3588,0.7192 z m 11.39675,-19.27782 c -0.46024,-0.2877 -3.39709,-3.94855 -6.52634,-8.13523 -3.12926,-4.18667 -6.07255,-7.85156 -6.54066,-8.14418 -0.4681,-0.29262 -4.18488,-1.18373 -8.25952,-1.98022 -10.01443,-1.95758 -12.52071,-2.58969 -12.65986,-3.19294 -0.22445,-0.97301 1.28328,-0.8104 11.67488,1.25908 l 10.4359,2.07831 3.29431,4.40278 c 1.81186,2.42153 4.73845,6.34062 6.50351,8.70906 3.05156,4.09473 3.90261,6.14408 2.07778,5.00334 z m -15.5935,5.0326 c -1.6356,0.0349 -1.7756,-0.0892 -5.91992,-5.25159 -5.09873,-6.35114 -5.65265,-6.77603 -6.50161,-4.98707 -0.55845,1.17679 0.31246,3.74876 2.04231,6.03142 0.18805,0.24812 0.10849,0.51424 -0.17679,0.59137 -0.82457,0.2229 -3.03634,-4.21386 -2.95501,-5.92762 0.0976,-2.05555 1.66416,-3.5054 3.52271,-3.26022 1.21572,0.16038 1.82514,0.64341 3.45192,2.73605 5.61854,7.22752 6.46561,8.21488 7.16441,8.35092 2.05529,0.40013 1.97108,-3.71226 -0.11649,-5.68969 -1.02165,-0.96773 -1.11454,-2.13568 -0.12043,-1.51425 0.95166,0.59491 2.86345,4.33014 2.78814,5.44746 -0.13939,2.06832 -1.3904,3.43502 -3.17924,3.47322 z m -37.65482,60.88382 c -0.24674,-0.15424 -0.13313,-0.78513 0.25247,-1.40198 0.3856,-0.61684 0.56402,-1.71579 0.39647,-2.44212 -0.34874,-1.51181 -15.85935,-17.86144 -17.19074,-18.12064 -0.45283,-0.0882 -1.14276,0.35073 -1.53321,0.97532 -0.39044,0.62458 -0.91176,1.00941 -1.1585,0.85517 -0.25635,-0.16026 0.3927,-1.62627 1.51444,-3.42072 1.37152,-2.19398 2.13013,-3.03583 2.51749,-2.79369 1.67851,1.04928 20.52619,9.47627 21.00539,9.39173 0.49074,-0.0866 -2.6028,-6.85892 -9.80592,-21.46712 l -1.81234,-3.67552 1.73921,-3.07733 c 1.08555,-1.92076 1.91558,-2.96709 2.20833,-2.78408 0.25802,0.16129 0.17773,0.75936 -0.17839,1.32904 -0.35612,0.56968 -0.59224,1.50883 -0.52473,2.08699 0.1303,1.11572 16.68825,18.63328 17.61702,18.63802 0.28734,0.002 0.823,-0.47818 1.1904,-1.0659 0.3674,-0.58772 0.94787,-1.06716 1.28992,-1.0654 0.39888,0.002 -0.38979,1.62162 -2.19899,4.51577 -1.69366,2.70932 -3.00019,4.40053 -3.26953,4.23216 -0.24674,-0.15424 -0.0855,-0.86135 0.35836,-1.57135 0.44384,-0.71 0.68372,-1.66359 0.53308,-2.11912 -0.26081,-0.78864 -15.34536,-16.57564 -16.56856,-17.34011 -0.54332,-0.33956 1.42641,4.09232 5.3662,12.07391 5.88026,11.91282 7.21961,14.89986 6.90592,15.40167 -0.19412,0.31053 -0.58211,0.42135 -0.86222,0.24625 -0.28009,-0.1751 -4.99141,-2.40713 -10.46958,-4.96008 -9.96906,-4.64579 -12.74918,-5.67138 -11.71922,-4.3232 1.12429,1.47166 14.79296,15.26659 15.67024,15.815 0.68222,0.42647 1.23895,0.26554 2.04748,-0.59183 2.12817,-2.25675 1.87886,-0.66011 -0.48817,3.12639 -1.40218,2.24306 -2.56843,3.69773 -2.83232,3.53277 z m 20.10363,-76.99518 c -1.01514,-0.005 -1.95328,-2.09855 -1.26992,-2.83366 0.95945,-1.03208 2.96375,0.46931 2.38126,1.78376 -0.25672,0.57923 -0.75677,1.05173 -1.11134,1.0499 z"
     id="path7909" /><path
     style="fill:#000000;stroke-width:0.586208"
     d="m 951.84964,79.998017 c 0.16982,-0.56422 1.27549,-4.91681 2.45704,-9.67243 1.58129,-6.3645 2.38154,-8.64656 3.03207,-8.64656 0.97164,0 0.87267,1.43949 -0.53793,7.82441 -0.7045,3.18887 -0.67891,3.48519 0.36705,4.25001 2.78887,2.03928 5.20628,-0.25434 6.85657,-6.50545 1.35487,-5.1321 1.91224,-6.14184 2.86459,-5.18948 0.42782,0.42782 0.22938,2.14739 -0.65452,5.67162 -0.69767,2.78171 -1.11585,5.45546 -0.92927,5.94167 0.50898,1.32639 1.97705,0.46246 2.69013,-1.5831 0.3464,-0.99367 0.7679,-1.66859 0.93668,-1.49982 0.43797,0.43799 -0.83828,3.5849 -1.6678,4.11235 -1.12036,0.7124 -2.5956,0.52903 -3.56812,-0.44348 -0.81459,-0.8146 -1.04798,-0.80974 -2.35865,0.0491 -0.88085,0.57715 -2.31093,0.87595 -3.62557,0.7575 -2.31056,-0.20817 -2.44776,-0.0335 -3.414,4.34752 -0.24663,1.11823 -0.72339,1.61207 -1.5563,1.61207 -0.8704,0 -1.1158,-0.28224 -0.89197,-1.02586 z m -18.98843,-12.01989 c -1.80163,-0.91763 -3.51511,-4.19066 -3.51634,-6.71677 -0.003,-4.50541 3.53499,-10.40896 7.43471,-12.40857 1.82466,-0.9356 5.18865,-0.81168 6.04717,0.22277 0.40136,0.48362 0.92887,0.87931 1.17221,0.87931 0.44846,0 2.93124,-9.16773 2.93124,-10.82363 0,-0.56976 -0.5383,-0.90052 -1.46551,-0.90052 -1.63726,0 -1.96539,-0.85517 -0.53827,-1.40281 1.88358,-0.72279 5.52103,-0.39339 5.52103,0.49998 0,0.4707 -1.45087,6.51328 -3.22415,13.42796 -1.77327,6.91468 -3.22414,13.53845 -3.22414,14.71948 0,1.89155 0.15711,2.12501 1.31897,1.96 0.985,-0.1399 1.61583,-0.96494 2.49138,-3.2584 1.23727,-3.24094 2.34294,-4.20542 1.68753,-1.47204 -1.1429,4.76649 -3.75318,6.90254 -6.35318,5.19896 -0.81924,-0.53679 -1.48953,-1.23368 -1.48953,-1.54867 0,-0.89597 -1.07527,-0.67693 -2.80822,0.57208 -2.18399,1.57407 -4.24661,1.93624 -5.9849,1.05087 z m 6.16331,-2.3422 c 1.66071,-1.54895 2.26026,-2.78202 3.20653,-6.59484 1.47093,-5.92675 1.4727,-7.62301 0.01,-9.08622 -1.35814,-1.35813 -1.7634,-1.4122 -3.76155,-0.50178 -2.20211,1.00334 -4.28584,4.43311 -5.29093,8.70869 -1.13709,4.83709 -1.13719,6.45364 -5e-4,8.07648 1.29954,1.85537 3.4386,1.63464 5.83696,-0.60233 z"
     id="path8499" /><text
     xml:space="preserve"
     style="font-style:normal;font-variant:normal;font-weight:normal;font-stretch:normal;font-size:32px;font-family:'Times New Roman';-inkscape-font-specification:'Times New Roman, ';fill:#000000;fill-opacity:1;stroke:#000000;stroke-width:1.014;stroke-dasharray:none;stroke-opacity:0"
     id="text10169"
     x="910.85352"
     y="121.37891">scalar</text><path
     style="fill:#000000;stroke-width:0.456645"
     d="m 1356.1488,443.45542 c 0.1148,-0.43952 0.8985,-3.74935 1.7414,-7.35517 1.4039,-6.00534 2.1473,-7.64277 3.0563,-6.73361 0.1618,0.1618 -0.07,1.69582 -0.5136,3.4089 -0.4443,1.71309 -0.7396,3.71237 -0.6564,4.44282 0.1278,1.12063 0.3792,1.35017 1.6086,1.46921 1.8631,0.18039 3.1216,-1.03333 3.7909,-3.65599 1.0117,-3.9643 1.6148,-5.5568 2.1724,-5.7375 0.7737,-0.25064 0.715,0.8576 -0.2618,4.93859 -0.454,1.89703 -0.7435,3.69505 -0.6433,3.99564 0.3461,1.03853 1.5251,0.54167 2.0092,-0.84675 0.2671,-0.76628 0.5923,-1.2866 0.7226,-1.15625 0.4648,0.46477 -0.9133,2.9808 -1.7839,3.25715 -0.4886,0.15506 -1.3713,-0.0363 -1.9664,-0.42613 -0.9739,-0.63818 -1.2183,-0.63842 -2.4931,-0.003 -0.884,0.44102 -1.9152,0.59483 -2.7536,0.41072 -1.2718,-0.27936 -1.3658,-0.19398 -1.8451,1.677 -0.7656,2.98845 -0.8312,3.11296 -1.6404,3.11296 -0.4918,0 -0.6803,-0.27688 -0.5438,-0.79913 z m -30.3935,-24.80951 c -6.0492,-6.68463 -9.4369,-17.00853 -9.4369,-28.75889 0,-9.51119 1.4988,-16.37422 5.0944,-23.32551 1.8761,-3.6271 6.3777,-9.06952 7.5016,-9.06952 0.9696,0 0.8164,0.35547 -1.181,2.7412 -5.7489,6.86656 -8.657,16.68336 -8.657,29.22395 0,12.4652 2.7841,22.04131 8.4197,28.96043 2.2637,2.77905 2.3702,3.00473 1.4183,3.00473 -0.3556,0 -1.7773,-1.24938 -3.1591,-2.77639 z m 180.984,2.39934 c 0,-0.20737 0.5331,-0.87521 1.1846,-1.48409 2.0232,-1.89092 5.6401,-8.24434 6.825,-11.98847 1.7902,-5.65736 2.4933,-10.76563 2.4933,-18.11555 0,-13.07033 -2.8849,-22.7422 -8.7904,-29.46956 -1.8537,-2.1118 -2.0267,-2.49559 -1.1244,-2.49559 1.6889,0 6.7659,6.75724 9.1509,12.17938 2.7568,6.26757 3.2127,9.07506 3.2127,19.78577 0,8.58851 -0.1209,10.25509 -0.9653,13.30958 -1.9528,7.06402 -4.9171,12.70743 -8.7797,16.71484 -1.7096,1.77365 -3.2067,2.5037 -3.2067,1.56369 z m -167.5887,-6.90956 c 0,-0.24523 0.8733,-1.44339 1.9407,-2.66257 7.3992,-8.45112 16.5309,-19.50701 16.4175,-19.87664 -0.075,-0.24369 -4.2358,-6.0437 -9.247,-12.88891 -5.0111,-6.8452 -9.1112,-12.77511 -9.1112,-13.17754 0,-0.66083 2.0823,-0.73173 21.4919,-0.73173 h 21.4918 l 1.735,3.76733 c 2.0228,4.39201 2.5211,5.83298 2.004,5.79433 -0.2053,-0.0153 -0.9957,-0.88514 -1.7566,-1.93289 -0.8509,-1.17164 -2.345,-2.3962 -3.8816,-3.18105 -4.8132,-2.45882 -6.4787,-2.69644 -20.686,-2.9514 -7.2407,-0.12995 -13.3273,-0.0574 -13.5258,0.16116 -0.1984,0.21859 3.2958,5.3292 7.7649,11.35691 4.4691,6.02772 8.1412,11.23981 8.1602,11.58245 0.02,0.34263 -0.953,1.78106 -2.1599,3.19651 -1.2069,1.41546 -5.214,6.09801 -8.9045,10.40569 -3.6907,4.30766 -6.7102,7.95512 -6.7102,8.10544 0,0.47752 24.9008,0.29398 28.5261,-0.21025 1.9123,-0.26597 4.3261,-0.78324 5.3642,-1.1495 2.5152,-0.88742 5.5996,-3.27102 6.6027,-5.10243 0.827,-1.51032 1.5387,-1.94558 1.4931,-0.91329 -0.014,0.31394 -0.9096,2.83119 -1.9905,5.59389 l -1.9652,5.0231 -21.5269,0.11863 c -13.7809,0.076 -21.5267,-0.0417 -21.5267,-0.32724 z m 74.5988,-5.72655 c -0.3928,-1.02342 3.1135,-14.4459 3.8471,-14.72741 1.02,-0.39145 1.0766,0.14229 0.3479,3.28471 -1.2431,5.35976 -0.673,7.13182 1.9712,6.12653 1.6413,-0.62403 2.2026,-1.60088 3.0253,-5.26518 0.4041,-1.8006 1.0305,-3.51903 1.3916,-3.81875 1.15,-0.95443 1.2336,0.54386 0.2322,4.15784 -1.1859,4.27915 -1.1855,4.98961 0.01,4.98961 0.6341,0 1.094,-0.45044 1.4226,-1.39324 0.2672,-0.76629 0.5924,-1.2866 0.7227,-1.15626 0.4648,0.46478 -0.9132,2.98081 -1.7839,3.25715 -0.4948,0.15703 -1.3813,-0.0427 -2.0059,-0.45198 -1.029,-0.67433 -1.2109,-0.67326 -2.2588,0.0134 -0.7954,0.52121 -1.6175,0.65704 -2.722,0.44982 l -1.5826,-0.29688 -0.7326,2.52046 c -0.7886,2.71247 -1.4231,3.49345 -1.8771,2.31025 z m 56.2286,0.22475 c -0.4513,-0.73026 3.083,-14.68246 3.7878,-14.95293 1.0608,-0.40708 1.1393,0.26354 0.3831,3.27406 -1.3836,5.50787 -0.7098,7.23769 2.3224,5.96278 1.4608,-0.61425 1.993,-1.77283 3.1414,-6.83931 0.3405,-1.50234 0.9877,-2.51154 1.6104,-2.51154 0.6445,0 0.4675,1.75892 -0.5373,5.33989 -0.516,1.83879 -0.8121,3.54718 -0.658,3.79645 0.5583,0.90333 1.6076,0.42095 2.2426,-1.03089 0.5526,-1.26372 0.6544,-1.33153 0.6862,-0.45665 0.041,1.10324 -1.4155,2.85404 -2.3726,2.85404 -0.3209,0 -1.0352,-0.31631 -1.587,-0.70293 -0.9078,-0.63578 -1.1136,-0.6309 -2.1545,0.0511 -0.8041,0.52687 -1.6254,0.66511 -2.7255,0.45876 -1.5153,-0.28429 -1.5923,-0.23056 -2.0542,1.4329 -0.2641,0.95054 -0.4812,1.95997 -0.4826,2.24316 -0.01,0.84098 -1.2366,1.67254 -1.6022,1.08101 z m -30.2567,-18.90877 c 0.077,-11.36329 0.2818,-17.62082 0.5762,-17.6207 0.7351,3.3e-4 0.6164,34.80422 -0.1195,35.04952 -0.4586,0.15286 -0.5518,-3.40526 -0.4567,-17.42882 z m 47.839,16.92953 c 0,-0.33641 1.4283,-4.32124 3.1741,-8.85519 l 3.1741,-8.24352 -3.184,-8.37074 c -2.8619,-7.52415 -3.495,-10.07778 -2.3184,-9.35064 0.2175,0.13447 1.8896,4.15441 3.7156,8.93322 l 3.3202,8.68875 -2.861,7.64911 c -1.5735,4.20702 -3.1466,8.21421 -3.4959,8.90489 -0.6677,1.32058 -1.5247,1.68263 -1.5247,0.64412 z m -248.4785,-8.9365 c -1.026,-0.82978 -1.0852,-1.18262 -1.2267,-7.30632 l -0.1487,-6.43443 -1.6779,-0.0219 -1.6779,-0.0219 1.5526,-0.77719 c 1.7319,-0.8669 3.2422,-3.29969 3.2422,-5.22237 0,-0.6946 0.2055,-1.26289 0.4566,-1.26289 0.2609,0 0.4567,1.36993 0.4567,3.19651 v 3.19652 h 2.5115 c 1.3813,0 2.5116,0.20549 2.5116,0.45664 0,0.25116 -1.1303,0.45664 -2.5116,0.45664 h -2.5115 v 5.67835 c 0,5.9822 0.3419,7.70402 1.6275,8.1974 1.4615,0.56081 2.8316,-0.87938 3.3043,-3.47334 l 0.4394,-2.41112 0.054,1.97076 c 0.054,1.95968 -0.5384,3.66025 -1.4982,4.30112 -0.9789,0.65361 -3.8249,0.35043 -4.9042,-0.52241 z m 12.1647,0.34459 c -2.343,-1.2815 -2.7101,-3.6471 -0.8999,-5.79847 1.1478,-1.36398 3.7039,-2.43489 7.2241,-3.02667 1.7427,-0.29297 1.7551,-0.30989 1.447,-1.97872 -0.4436,-2.40407 -1.8421,-3.73812 -3.9188,-3.73812 -1.5213,0 -4.7467,1.7717 -3.2977,1.81139 0.3051,0.008 0.767,0.41189 1.0265,0.89677 0.6709,1.25346 -0.5877,2.51215 -1.8413,1.84131 -1.018,-0.54484 -1.1017,-1.28333 -0.336,-2.96397 1.4665,-3.2185 6.9022,-3.33844 9.73,-0.2147 0.7859,0.86805 0.9345,1.78761 1.0725,6.63694 0.112,3.9321 0.331,5.69477 0.7264,5.84652 1.0256,0.39355 1.7767,-0.50429 2.1027,-2.51348 l 0.3212,-1.97955 0.057,2.15853 c 0.049,1.83032 -0.1159,2.27194 -1.081,2.90437 -1.3838,0.90668 -3.1983,0.55808 -3.8978,-0.74883 -0.4894,-0.91446 -0.5139,-0.91141 -1.8748,0.2337 -1.0547,0.88747 -1.8807,1.15702 -3.5129,1.1464 -1.1737,-0.008 -2.5451,-0.23868 -3.0473,-0.51342 z m 6.6098,-1.55442 c 0.9374,-0.92283 1.132,-1.55818 1.1416,-3.72767 0.013,-3.20263 -0.5026,-3.43011 -4.0761,-1.79417 -2.0502,0.93863 -2.5611,1.40766 -2.8966,2.65918 -0.5116,1.90804 -0.081,3.18255 1.3237,3.92123 1.4062,0.7392 3.0806,0.34594 4.5074,-1.05857 z m 140.0445,1.56456 c -1.0311,-0.59944 -2.1261,-3.10577 -2.1261,-4.86656 0,-3.89789 3.6223,-9.27317 6.8312,-10.13727 1.8456,-0.49694 2.9499,-0.28891 4.2129,0.79353 0.6969,0.59726 0.8137,0.49349 1.2352,-1.09685 1.6473,-6.21638 1.721,-7.3539 0.4886,-7.54699 -1.8529,-0.29029 -0.8492,-1.06231 1.5528,-1.19442 l 2.4583,-0.13521 -2.6739,10.63805 c -2.673,10.63503 -3.0537,12.87033 -2.2735,13.35245 0.8705,0.53804 1.8069,-0.34717 2.7825,-2.63058 0.5563,-1.30187 1.1108,-2.10446 1.2322,-1.78349 0.1215,0.32095 -0.2606,1.55389 -0.8489,2.73987 -0.9554,1.92585 -1.2506,2.17133 -2.7619,2.29683 -1.308,0.10862 -1.8253,-0.0727 -2.2789,-0.79913 -0.73,-1.16892 -1.0687,-1.17245 -2.5258,-0.0264 -1.2686,0.99795 -3.9277,1.19651 -5.3047,0.39614 z m 4.1764,-0.5777 c 2.0567,-1.0635 2.6954,-2.14418 3.9185,-6.62944 0.9859,-3.61521 1.0835,-4.4806 0.613,-5.43762 -1.8945,-3.85352 -5.7152,-1.5825 -7.4985,4.45698 -1.0501,3.5568 -1.0123,6.81436 0.089,7.61941 1.0721,0.784 1.3459,0.78312 2.8782,-0.009 z m -135.9897,0.18158 c 0,-0.25116 0.6164,-0.45665 1.3698,-0.45665 h 1.37 v -6.20438 -6.20437 l -1.37,-0.5171 c -1.8907,-0.71366 -1.7136,-1.21726 0.4568,-1.29864 1.0045,-0.0377 2.0814,-0.089 2.3928,-0.11417 0.3115,-0.0251 0.6711,0.54211 0.7991,1.2605 l 0.2329,1.30617 0.8543,-0.94649 c 1.3517,-1.49745 3.7316,-2.10129 5.8181,-1.47616 0.9683,0.29012 1.9694,0.91771 2.2247,1.39466 0.2552,0.47694 0.4641,3.227 0.4641,6.11125 0,2.88426 0.1247,5.56914 0.2771,5.96641 0.1525,0.39728 0.769,0.72232 1.37,0.72232 0.601,0 1.0927,0.20549 1.0927,0.45665 0,0.26638 -1.5221,0.45664 -3.6531,0.45664 -2.131,0 -3.6532,-0.19026 -3.6532,-0.45664 0,-0.25116 0.5138,-0.45665 1.1416,-0.45665 h 1.1416 v -6.13209 c 0,-6.8097 -0.282,-7.56726 -2.8176,-7.56726 -1.7116,0 -3.8851,2.1664 -4.2706,4.25667 -0.1472,0.79827 -0.2051,3.19806 -0.1287,5.33287 0.1381,3.85577 0.1473,3.88245 1.3947,4.02598 0.6907,0.0794 1.2558,0.33633 1.2558,0.57081 0,0.23447 -1.7467,0.42631 -3.8815,0.42631 -2.2833,0 -3.8814,-0.18803 -3.8814,-0.45664 z m 19.6357,0.0303 c 0,-0.23448 0.5651,-0.49134 1.2558,-0.57081 l 1.2557,-0.14448 0.1291,-9.81787 c 0.071,-5.39983 0.015,-10.28022 -0.1228,-10.84533 -0.1771,-0.7217 -0.5891,-1.02745 -1.3849,-1.02745 -0.7026,0 -1.1329,-0.26016 -1.1329,-0.68497 0,-0.52583 0.5835,-0.68496 2.5115,-0.68496 h 2.5116 v 5.7935 5.7935 l 1.4005,-1.34122 c 1.1816,-1.13147 1.7561,-1.33592 3.6743,-1.3074 1.703,0.0253 2.5263,0.2859 3.2801,1.03824 0.9081,0.90642 1.0286,1.59387 1.2346,7.0442 l 0.2283,6.03976 1.2558,0.14449 c 0.6907,0.0794 1.2558,0.33633 1.2558,0.5708 0,0.23448 -1.7467,0.42631 -3.8815,0.42631 -2.1348,0 -3.8815,-0.19183 -3.8815,-0.42631 0,-0.23447 0.5651,-0.49134 1.2558,-0.5708 l 1.2557,-0.14449 0.1148,-5.47974 c 0.1296,-6.18984 -0.2973,-7.67545 -2.2718,-7.90529 -1.6337,-0.19016 -2.9553,0.57729 -4.0304,2.34052 -0.7328,1.20186 -0.8874,2.30889 -0.8888,6.36389 v 4.90894 h 1.3699 c 0.7535,0 1.3699,0.20549 1.3699,0.45665 0,0.26861 -1.5982,0.45663 -3.8815,0.45663 -2.1348,0 -3.8814,-0.19183 -3.8814,-0.42631 z m 161.1957,-0.003 c 0,-0.236 0.766,-0.49285 1.7021,-0.57081 l 1.7022,-0.14172 2.6017,-10.0462 c 1.4311,-5.52541 2.6172,-10.39215 2.636,-10.81499 0.022,-0.50412 -0.386,-0.81854 -1.1864,-0.91329 -0.6712,-0.0794 -1.3048,-0.40136 -1.4079,-0.7153 -0.1424,-0.43359 1.0292,-0.57082 4.8737,-0.57082 3.0042,0 5.0611,0.18207 5.0611,0.44796 0,0.44752 -1.0437,0.78139 -3.1964,1.02246 -1.0906,0.12212 -1.2582,0.5871 -3.7492,10.40235 -1.4341,5.65099 -2.6156,10.53138 -2.6256,10.84533 -0.026,0.80711 6.416,0.75661 8.3841,-0.0657 1.7142,-0.71624 3.478,-2.83143 4.5731,-5.48416 1.4187,-3.43679 1.2612,-1.20034 -0.2041,2.89587 l -1.4802,4.13809 h -8.8421 c -5.2116,0 -8.8421,-0.17618 -8.8421,-0.42907 z"
     id="path24036" /></svg>
