<?xml version="1.0" encoding="UTF-8" standalone="no"?>
<svg
   style="cursor: move;"
   width="1920"
   height="955"
   version="1.1"
   id="svg18902"
   sodipodi:docname="nn_v2.svg"
   inkscape:version="1.2.2 (732a01da63, 2022-12-09)"
   xml:space="preserve"
   xmlns:inkscape="http://www.inkscape.org/namespaces/inkscape"
   xmlns:sodipodi="http://sodipodi.sourceforge.net/DTD/sodipodi-0.dtd"
   xmlns:xlink="http://www.w3.org/1999/xlink"
   xmlns="http://www.w3.org/2000/svg"
   xmlns:svg="http://www.w3.org/2000/svg"><sodipodi:namedview
     id="namedview18904"
     pagecolor="#505050"
     bordercolor="#eeeeee"
     borderopacity="1"
     inkscape:showpageshadow="0"
     inkscape:pageopacity="0"
     inkscape:pagecheckerboard="0"
     inkscape:deskcolor="#505050"
     showgrid="false"
     inkscape:zoom="1"
     inkscape:cx="1039"
     inkscape:cy="440"
     inkscape:window-width="1920"
     inkscape:window-height="1017"
     inkscape:window-x="1358"
     inkscape:window-y="-8"
     inkscape:window-maximized="1"
     inkscape:current-layer="svg18902" /><g
     transform="translate(-75.40721677021907,-22.17839236092044) scale(1.0139594797900278)"
     id="g18895"><path
       class="link"
       style="stroke-width: 0.93px; stroke-opacity: 0.59; stroke: rgb(0, 0, 0); fill: none;"
       d="M689,452.5C849.5,452.5 849.5,207.5 1010,207.5"
       id="path18837"
       marker-end="" /><path
       class="link"
       style="stroke-width: 0.93px; stroke-opacity: 0.59; stroke: rgb(0, 0, 0); fill: none;"
       d="M689,452.5C849.5,452.5 849.5,277.5 1010,277.5"
       id="path18839"
       marker-end="" /><path
       class="link"
       style="stroke-width: 0.93px; stroke-opacity: 0.59; stroke: rgb(0, 0, 0); fill: none;"
       d="M689,452.5C849.5,452.5 849.5,347.5 1010,347.5"
       id="path18841"
       marker-end="" /><path
       class="link"
       style="stroke-width: 0.93px; stroke-opacity: 0.59; stroke: rgb(0, 0, 0); fill: none;"
       d="M689,452.5C849.5,452.5 849.5,417.5 1010,417.5"
       id="path18843"
       marker-end="" /><path
       class="link"
       style="stroke-width: 0.93px; stroke-opacity: 0.59; stroke: rgb(0, 0, 0); fill: none;"
       d="M689,452.5C849.5,452.5 849.5,487.5 1010,487.5"
       id="path18845"
       marker-end="" /><path
       class="link"
       style="stroke-width: 0.93px; stroke-opacity: 0.59; stroke: rgb(0, 0, 0); fill: none;"
       d="M689,452.5C849.5,452.5 849.5,557.5 1010,557.5"
       id="path18847"
       marker-end="" /><path
       class="link"
       style="stroke-width: 0.93px; stroke-opacity: 0.59; stroke: rgb(0, 0, 0); fill: none;"
       d="M689,452.5C849.5,452.5 849.5,627.5 1010,627.5"
       id="path18849"
       marker-end="" /><path
       class="link"
       style="stroke-width: 0.93px; stroke-opacity: 0.59; stroke: rgb(0, 0, 0); fill: none;"
       d="M689,452.5C849.5,452.5 849.5,697.5 1010,697.5"
       id="path18851"
       marker-end="" /><path
       class="link"
       style="stroke-width:0.93px;stroke-opacity:0.59;stroke:rgb(0, 0, 0);fill:none;marker-end:url(#Arrow4)"
       marker-end=""
       d="M689,452.5C849.5,452.5 849.5,767.5 1010,767.5"
       id="path18853" /><path
       class="link"
       style="stroke-width: 0.93px; stroke-opacity: 0.59; stroke: rgb(0, 0, 0); fill: none;"
       d="M1010,137.5C1170.5,137.5 1170.5,452.5 1331,452.5"
       id="path18855"
       marker-end="" /><path
       class="link"
       style="stroke-width: 0.93px; stroke-opacity: 0.59; stroke: rgb(0, 0, 0); fill: none;"
       d="M1010,207.5C1170.5,207.5 1170.5,452.5 1331,452.5"
       id="path18857"
       marker-end="" /><path
       class="link"
       style="stroke-width: 0.93px; stroke-opacity: 0.59; stroke: rgb(0, 0, 0); fill: none;"
       d="M1010,277.5C1170.5,277.5 1170.5,452.5 1331,452.5"
       id="path18859"
       marker-end="" /><path
       class="link"
       style="stroke-width: 0.93px; stroke-opacity: 0.59; stroke: rgb(0, 0, 0); fill: none;"
       d="M1010,347.5C1170.5,347.5 1170.5,452.5 1331,452.5"
       id="path18861"
       marker-end="" /><path
       class="link"
       style="stroke-width: 0.93px; stroke-opacity: 0.59; stroke: rgb(0, 0, 0); fill: none;"
       d="M1010,417.5C1170.5,417.5 1170.5,452.5 1331,452.5"
       id="path18863"
       marker-end="" /><path
       class="link"
       style="stroke-width: 0.93px; stroke-opacity: 0.59; stroke: rgb(0, 0, 0); fill: none;"
       d="M1010,487.5C1170.5,487.5 1170.5,452.5 1331,452.5"
       id="path18865"
       marker-end="" /><path
       class="link"
       style="stroke-width: 0.93px; stroke-opacity: 0.59; stroke: rgb(0, 0, 0); fill: none;"
       d="M1010,557.5C1170.5,557.5 1170.5,452.5 1331,452.5"
       id="path18867"
       marker-end="" /><path
       class="link"
       style="stroke-width: 0.93px; stroke-opacity: 0.59; stroke: rgb(0, 0, 0); fill: none;"
       d="M1010,627.5C1170.5,627.5 1170.5,452.5 1331,452.5"
       id="path18869"
       marker-end="" /><path
       class="link"
       style="stroke-width: 0.93px; stroke-opacity: 0.59; stroke: rgb(0, 0, 0); fill: none;"
       d="M1010,697.5C1170.5,697.5 1170.5,452.5 1331,452.5"
       id="path18871"
       marker-end="" /><path
       class="link"
       style="stroke-width: 0.93px; stroke-opacity: 0.59; stroke: rgb(0, 0, 0); fill: none;"
       d="M1010,767.5C1170.5,767.5 1170.5,452.5 1331,452.5"
       id="path18873"
       marker-end="" /><path
       class="link"
       style="stroke-width: 0.93px; stroke-opacity: 0.59; stroke: rgb(0, 0, 0); fill: none;"
       d="M689,452.5C849.5,452.5 849.5,137.5 1010,137.5"
       id="path18875"
       marker-end="" /><circle
       r="25"
       class="node"
       id="0_0"
       style="fill:url(#radialGradient34541);stroke:url(#radialGradient34579);stroke-width:1.00003996;stroke-dasharray:none;fill-opacity:1;stroke-opacity:1"
       cx="689"
       cy="452.5" /><circle
       r="25"
       class="node"
       id="1_0"
       style="fill: rgb(255, 255, 255); stroke: rgb(51, 51, 51);"
       cx="1010"
       cy="137.5" /><circle
       r="25"
       class="node"
       id="1_1"
       style="fill: rgb(255, 255, 255); stroke: rgb(51, 51, 51);"
       cx="1010"
       cy="207.5" /><circle
       r="25"
       class="node"
       id="1_2"
       style="fill: rgb(255, 255, 255); stroke: rgb(51, 51, 51);"
       cx="1010"
       cy="277.5" /><circle
       r="25"
       class="node"
       id="1_3"
       style="fill: rgb(255, 255, 255); stroke: rgb(51, 51, 51);"
       cx="1010"
       cy="347.5" /><circle
       r="25"
       class="node"
       id="1_4"
       style="fill: rgb(255, 255, 255); stroke: rgb(51, 51, 51);"
       cx="1010"
       cy="417.5" /><circle
       r="25"
       class="node"
       id="1_5"
       style="fill: rgb(255, 255, 255); stroke: rgb(51, 51, 51);"
       cx="1010"
       cy="487.5" /><circle
       r="25"
       class="node"
       id="1_6"
       style="fill: rgb(255, 255, 255); stroke: rgb(51, 51, 51);"
       cx="1010"
       cy="557.5" /><circle
       r="25"
       class="node"
       id="1_7"
       style="fill: rgb(255, 255, 255); stroke: rgb(51, 51, 51);"
       cx="1010"
       cy="627.5" /><circle
       r="25"
       class="node"
       id="1_8"
       style="fill: rgb(255, 255, 255); stroke: rgb(51, 51, 51);"
       cx="1010"
       cy="697.5" /><circle
       r="25"
       class="node"
       id="1_9"
       style="fill: rgb(255, 255, 255); stroke: rgb(51, 51, 51);"
       cx="1010"
       cy="767.5" /><text
       class="text"
       dy=".35em"
       style="font-size: 12px;"
       x="654"
       y="837.5"
       id="text18888" /><text
       class="text"
       dy=".35em"
       style="font-size: 12px;"
       x="975"
       y="837.5"
       id="text18890" /><circle
       class="node"
       id="2_0"
       style="fill:url(#radialGradient19559);fill-opacity:1;stroke:url(#radialGradient34311);stroke-width:1.00004;stroke-dasharray:none;stroke-opacity:1"
       cx="1555.8593"
       cy="452.5"
       r="25" /><text
       class="text"
       dy=".35em"
       style="font-size: 12px;"
       x="1296"
       y="837.5"
       id="text18893" /></g><defs
     id="defs18900"><marker
       markerWidth="1.05"
       markerHeight="1.9999999"
       refX="0"
       refY="0"
       orient="auto-start-reverse"
       id="marker96141"
       viewBox="0 0 1.05 2"
       inkscape:stockid="pin"
       style="overflow:visible"
       preserveAspectRatio="xMidYMid"
       inkscape:isstock="true"
       inkscape:collect="always"><path
         id="path96139"
         style="fill:context-stroke;stroke-linecap:butt"
         d="M 0,-1 H 0.585 C 1.33,-1 1.7,-1.6 2,-2 V 2 C 1.7,1.6 1.33,1 0.585,1 H 0 L -0.1,0 Z"
         sodipodi:nodetypes="sssssscsss"
         transform="scale(0.5)" /></marker><marker
       markerWidth="1.05"
       markerHeight="1.9999999"
       refX="0"
       refY="0"
       orient="auto-start-reverse"
       id="marker87286"
       viewBox="0 0 1.05 2"
       inkscape:stockid="pin"
       style="overflow:visible"
       preserveAspectRatio="xMidYMid"
       inkscape:isstock="true"
       inkscape:collect="always"><path
         id="path87284"
         style="fill:context-stroke;stroke-linecap:butt"
         d="M 0,-1 H 0.585 C 1.33,-1 1.7,-1.6 2,-2 V 2 C 1.7,1.6 1.33,1 0.585,1 H 0 L -0.1,0 Z"
         sodipodi:nodetypes="sssssscsss"
         transform="scale(0.5)" /></marker><marker
       markerWidth="1.05"
       markerHeight="1.9999999"
       refX="0"
       refY="0"
       orient="auto-start-reverse"
       id="Cap4"
       viewBox="0 0 1.05 2"
       inkscape:stockid="pin"
       style="overflow:visible"
       preserveAspectRatio="xMidYMid"
       inkscape:isstock="true"
       inkscape:collect="always"><path
         id="path104971"
         style="fill:context-stroke;stroke-linecap:butt"
         d="M 0,-1 H 0.585 C 1.33,-1 1.7,-1.6 2,-2 V 2 C 1.7,1.6 1.33,1 0.585,1 H 0 L -0.1,0 Z"
         sodipodi:nodetypes="sssssscsss"
         transform="scale(0.5)" /></marker><linearGradient
       inkscape:collect="always"
       id="linearGradient34389"><stop
         style="stop-color:#000000;stop-opacity:1;"
         offset="0"
         id="stop34385" /><stop
         style="stop-color:#000000;stop-opacity:0;"
         offset="0.27222222"
         id="stop34387" /></linearGradient><linearGradient
       inkscape:collect="always"
       id="linearGradient34271"><stop
         style="stop-color:#000000;stop-opacity:1;"
         offset="0"
         id="stop34267" /><stop
         style="stop-color:#000000;stop-opacity:0;"
         offset="1"
         id="stop34269" /></linearGradient><marker
       style="overflow:visible"
       id="TriangleStart"
       refX="0"
       refY="0"
       orient="auto-start-reverse"
       inkscape:stockid="TriangleStart"
       markerWidth="5.3244081"
       markerHeight="6.155385"
       viewBox="0 0 5.3244081 6.1553851"
       inkscape:isstock="true"
       inkscape:collect="always"
       preserveAspectRatio="xMidYMid"><path
         transform="scale(0.5)"
         style="fill:context-stroke;fill-rule:evenodd;stroke:context-stroke;stroke-width:1pt"
         d="M 5.77,0 -2.88,5 V -5 Z"
         id="path135" /></marker><marker
       style="overflow:visible"
       id="Arrow4"
       refX="0"
       refY="0"
       orient="auto-start-reverse"
       inkscape:stockid="Arrow4"
       markerWidth="13"
       markerHeight="15.6"
       viewBox="0 0 5 6"
       inkscape:isstock="true"
       inkscape:collect="always"
       preserveAspectRatio="xMidYMid"><path
         style="fill:context-stroke;fill-rule:evenodd;stroke:none"
         d="m 1,0 -3,3 h -2 l 3,-3 -3,-3 h 2 z"
         id="path1741" /></marker><linearGradient
       inkscape:collect="always"
       id="linearGradient19557"><stop
         style="stop-color:#ffffff;stop-opacity:1;"
         offset="0.65444446"
         id="stop19553" /><stop
         style="stop-color:#ff1111;stop-opacity:0;"
         offset="1"
         id="stop19555" /></linearGradient><linearGradient
       inkscape:collect="always"
       id="linearGradient19425"><stop
         style="stop-color:#ffffff;stop-opacity:1;"
         offset="0.65277779"
         id="stop19421" /><stop
         style="stop-color:#0023d8;stop-opacity:0;"
         offset="1"
         id="stop19423" /></linearGradient><marker
       id="arrow"
       viewBox="0 -5 10 10"
       markerWidth="7"
       markerHeight="7"
       orient="auto"
       refX="82"><path
         d="M0,-5L10,0L0,5"
         style="stroke: rgb(80, 80, 80); fill: rgb(0, 0, 0);"
         id="path18897" /></marker><radialGradient
       inkscape:collect="always"
       xlink:href="#linearGradient19557"
       id="radialGradient19559"
       cx="1331"
       cy="452.5"
       fx="1331"
       fy="452.5"
       r="25.5"
       gradientUnits="userSpaceOnUse"
       gradientTransform="translate(224.86118)" /><marker
       style="overflow:visible"
       id="TriangleStart-1"
       refX="0"
       refY="0"
       orient="auto-start-reverse"
       inkscape:stockid="TriangleStart"
       markerWidth="5.3244081"
       markerHeight="6.155385"
       viewBox="0 0 5.3244081 6.1553851"
       inkscape:isstock="true"
       inkscape:collect="always"
       preserveAspectRatio="xMidYMid"><path
         transform="scale(0.5)"
         style="fill:context-stroke;fill-rule:evenodd;stroke:context-stroke;stroke-width:1pt"
         d="M 5.77,0 -2.88,5 V -5 Z"
         id="path135-2" /></marker><marker
       style="overflow:visible"
       id="TriangleStart-1-7"
       refX="0"
       refY="0"
       orient="auto-start-reverse"
       inkscape:stockid="TriangleStart"
       markerWidth="5.3244081"
       markerHeight="6.155385"
       viewBox="0 0 5.3244081 6.1553851"
       inkscape:isstock="true"
       inkscape:collect="always"
       preserveAspectRatio="xMidYMid"><path
         transform="scale(0.5)"
         style="fill:context-stroke;fill-rule:evenodd;stroke:context-stroke;stroke-width:1pt"
         d="M 5.77,0 -2.88,5 V -5 Z"
         id="path135-2-2" /></marker><marker
       style="overflow:visible"
       id="TriangleStart-1-2"
       refX="0"
       refY="0"
       orient="auto-start-reverse"
       inkscape:stockid="TriangleStart"
       markerWidth="5.3244081"
       markerHeight="6.155385"
       viewBox="0 0 5.3244081 6.1553851"
       inkscape:isstock="true"
       inkscape:collect="always"
       preserveAspectRatio="xMidYMid"><path
         transform="scale(0.5)"
         style="fill:context-stroke;fill-rule:evenodd;stroke:context-stroke;stroke-width:1pt"
         d="M 5.77,0 -2.88,5 V -5 Z"
         id="path135-2-0" /></marker><radialGradient
       inkscape:collect="always"
       xlink:href="#linearGradient34389"
       id="radialGradient34311"
       cx="1469.0723"
       cy="452.5"
       fx="1469.0723"
       fy="452.5"
       r="25.50002"
       gradientUnits="userSpaceOnUse"
       gradientTransform="translate(86.788467)" /><radialGradient
       inkscape:collect="always"
       xlink:href="#linearGradient19425"
       id="radialGradient34541"
       gradientUnits="userSpaceOnUse"
       cx="689"
       cy="452.5"
       fx="689"
       fy="452.5"
       r="25.50002" /><radialGradient
       inkscape:collect="always"
       xlink:href="#linearGradient34271"
       id="radialGradient34579"
       gradientUnits="userSpaceOnUse"
       cx="689"
       cy="452.5"
       fx="689"
       fy="452.5"
       r="25.50002" /><marker
       style="overflow:visible"
       id="TriangleStart-1-2-1"
       refX="0"
       refY="0"
       orient="auto-start-reverse"
       inkscape:stockid="TriangleStart"
       markerWidth="5.3244081"
       markerHeight="6.155385"
       viewBox="0 0 5.3244081 6.1553851"
       inkscape:isstock="true"
       inkscape:collect="always"
       preserveAspectRatio="xMidYMid"><path
         transform="scale(0.5)"
         style="fill:context-stroke;fill-rule:evenodd;stroke:context-stroke;stroke-width:1pt"
         d="M 5.77,0 -2.88,5 V -5 Z"
         id="path135-2-0-8" /></marker><marker
       style="overflow:visible"
       id="TriangleStart-1-2-0"
       refX="0"
       refY="0"
       orient="auto-start-reverse"
       inkscape:stockid="TriangleStart"
       markerWidth="5.3244081"
       markerHeight="6.155385"
       viewBox="0 0 5.3244081 6.1553851"
       inkscape:isstock="true"
       inkscape:collect="always"
       preserveAspectRatio="xMidYMid"><path
         transform="scale(0.5)"
         style="fill:context-stroke;fill-rule:evenodd;stroke:context-stroke;stroke-width:1pt"
         d="M 5.77,0 -2.88,5 V -5 Z"
         id="path135-2-0-6" /></marker><marker
       style="overflow:visible"
       id="TriangleStart-1-2-9"
       refX="0"
       refY="0"
       orient="auto-start-reverse"
       inkscape:stockid="TriangleStart"
       markerWidth="5.3244081"
       markerHeight="6.155385"
       viewBox="0 0 5.3244081 6.1553851"
       inkscape:isstock="true"
       inkscape:collect="always"
       preserveAspectRatio="xMidYMid"><path
         transform="scale(0.5)"
         style="fill:context-stroke;fill-rule:evenodd;stroke:context-stroke;stroke-width:1pt"
         d="M 5.77,0 -2.88,5 V -5 Z"
         id="path135-2-0-3" /></marker><marker
       style="overflow:visible"
       id="TriangleStart-1-2-3"
       refX="0"
       refY="0"
       orient="auto-start-reverse"
       inkscape:stockid="TriangleStart"
       markerWidth="5.3244081"
       markerHeight="6.155385"
       viewBox="0 0 5.3244081 6.1553851"
       inkscape:isstock="true"
       inkscape:collect="always"
       preserveAspectRatio="xMidYMid"><path
         transform="scale(0.5)"
         style="fill:context-stroke;fill-rule:evenodd;stroke:context-stroke;stroke-width:1pt"
         d="M 5.77,0 -2.88,5 V -5 Z"
         id="path135-2-0-2" /></marker><marker
       style="overflow:visible"
       id="TriangleStart-1-2-32"
       refX="0"
       refY="0"
       orient="auto-start-reverse"
       inkscape:stockid="TriangleStart"
       markerWidth="5.3244081"
       markerHeight="6.155385"
       viewBox="0 0 5.3244081 6.1553851"
       inkscape:isstock="true"
       inkscape:collect="always"
       preserveAspectRatio="xMidYMid"><path
         transform="scale(0.5)"
         style="fill:context-stroke;fill-rule:evenodd;stroke:context-stroke;stroke-width:1pt"
         d="M 5.77,0 -2.88,5 V -5 Z"
         id="path135-2-0-4" /></marker><marker
       style="overflow:visible"
       id="TriangleStart-1-2-97"
       refX="0"
       refY="0"
       orient="auto-start-reverse"
       inkscape:stockid="TriangleStart"
       markerWidth="5.3244081"
       markerHeight="6.155385"
       viewBox="0 0 5.3244081 6.1553851"
       inkscape:isstock="true"
       inkscape:collect="always"
       preserveAspectRatio="xMidYMid"><path
         transform="scale(0.5)"
         style="fill:context-stroke;fill-rule:evenodd;stroke:context-stroke;stroke-width:1pt"
         d="M 5.77,0 -2.88,5 V -5 Z"
         id="path135-2-0-26" /></marker><marker
       style="overflow:visible"
       id="TriangleStart-1-2-6"
       refX="0"
       refY="0"
       orient="auto-start-reverse"
       inkscape:stockid="TriangleStart"
       markerWidth="5.3244081"
       markerHeight="6.155385"
       viewBox="0 0 5.3244081 6.1553851"
       inkscape:isstock="true"
       inkscape:collect="always"
       preserveAspectRatio="xMidYMid"><path
         transform="scale(0.5)"
         style="fill:context-stroke;fill-rule:evenodd;stroke:context-stroke;stroke-width:1pt"
         d="M 5.77,0 -2.88,5 V -5 Z"
         id="path135-2-0-0" /></marker></defs><path
     style="fill:#f7f7f7;fill-opacity:1;stroke:#000000;stroke-width:0.947;stroke-dasharray:none"
     d="m 1268.8724,436.63925 208.3429,-0.0291"
     id="path21781"
     sodipodi:nodetypes="cc" /><path
     style="fill:#f7f7f7;fill-opacity:1;stroke:#000000;stroke-width:0.947;stroke-dasharray:none;marker-end:url(#TriangleStart)"
     d="m 919.71054,752.29592 0.9191,0.22424"
     id="path31352"
     sodipodi:nodetypes="cc" /><path
     style="fill:#f7f7f7;fill-opacity:1;stroke:#000000;stroke-width:0.947;stroke-dasharray:none;marker-end:url(#TriangleStart-1)"
     d="m 919.71341,682.139 0.92801,0.18395"
     id="path31352-0"
     sodipodi:nodetypes="cc" /><path
     style="fill:#f7f7f7;fill-opacity:1;stroke:#000000;stroke-width:0.947;stroke-dasharray:none;marker-end:url(#TriangleStart-1-7)"
     d="m 919.58056,611.92258 0.93233,0.16061"
     id="path31352-0-1"
     sodipodi:nodetypes="cc" /><path
     style="fill:#f7f7f7;fill-opacity:1;stroke:#000000;stroke-width:0.947;stroke-dasharray:none;marker-end:url(#TriangleStart-1-2)"
     d="m 919.55789,541.92673 0.93595,0.0646"
     id="path31352-0-0"
     sodipodi:nodetypes="cc" /><path
     style="fill:#f7f7f7;fill-opacity:1;stroke:#000000;stroke-width:0.947;stroke-dasharray:none;marker-end:url(#TriangleStart-1-2-1)"
     d="m 919.47265,471.5855 0.93788,0.0235"
     id="path31352-0-0-0"
     sodipodi:nodetypes="cc" /><path
     style="fill:#f7f7f7;fill-opacity:1;stroke:#000000;stroke-width:0.947;stroke-dasharray:none;marker-end:url(#TriangleStart-1-2-0)"
     d="m 919.56676,401.56383 0.956,-0.0386"
     id="path31352-0-0-7"
     sodipodi:nodetypes="cc" /><path
     style="fill:#f7f7f7;fill-opacity:1;stroke:#000000;stroke-width:0.947;stroke-dasharray:none;marker-end:url(#TriangleStart-1-2-9)"
     d="m 919.61073,331.44987 0.93537,-0.0725"
     id="path31352-0-0-3"
     sodipodi:nodetypes="cc" /><path
     style="fill:#f7f7f7;fill-opacity:1;stroke:#000000;stroke-width:0.947;stroke-dasharray:none;marker-end:url(#TriangleStart-1-2-3)"
     d="m 919.68701,261.27326 0.92919,-0.12958"
     id="path31352-0-0-4"
     sodipodi:nodetypes="cc" /><path
     style="fill:#f7f7f7;fill-opacity:1;stroke:#000000;stroke-width:0.947;stroke-dasharray:none;marker-end:url(#TriangleStart-1-2-32)"
     d="m 919.66267,191.07889 0.92225,-0.1721"
     id="path31352-0-0-1"
     sodipodi:nodetypes="cc" /><path
     style="fill:#f7f7f7;fill-opacity:1;stroke:#000000;stroke-width:0.947;stroke-dasharray:none;marker-end:url(#TriangleStart-1-2-97)"
     d="m 919.83641,120.84487 0.90617,-0.24296"
     id="path31352-0-0-74"
     sodipodi:nodetypes="cc" /><path
     style="fill:#f7f7f7;fill-opacity:1;stroke:#000000;stroke-width:0.947;stroke-dasharray:none;marker-end:url(#TriangleStart-1-2-6)"
     d="m 1473.9104,436.57606 0.9383,-0.002"
     id="path31352-0-0-5"
     sodipodi:nodetypes="cc" /><path
     style="fill:#000000;fill-opacity:0;stroke:#000000;stroke-width:1.014;stroke-dasharray:none;stroke-opacity:0"
     id="path59222"
     sodipodi:type="arc"
     sodipodi:cx="559.7146"
     sodipodi:cy="516.03052"
     sodipodi:rx="24.925514"
     sodipodi:ry="24.925514"
     sodipodi:start="3.9106061"
     sodipodi:end="3.9093025"
     sodipodi:open="true"
     sodipodi:arc-type="arc"
     d="m 541.8032,498.69665 a 24.925514,24.925514 0 0 1 35.23943,-0.58318 24.925514,24.925514 0 0 1 0.59467,35.23924 24.925514,24.925514 0 0 1 -35.23905,0.60615 24.925514,24.925514 0 0 1 -0.61763,-35.23885"
     transform="rotate(-7.6781829)" /><text
     xml:space="preserve"
     style="font-style:normal;font-variant:normal;font-weight:normal;font-stretch:normal;font-size:16px;font-family:'Times New Roman';-inkscape-font-specification:'Times New Roman, ';fill:#000000;fill-opacity:1;stroke:#000000;stroke-width:1.014;stroke-dasharray:none;stroke-opacity:1"
     id="text59748"><textPath
       xlink:href="#path59222"
       id="textPath60787"><tspan
         id="tspan59746"> vector</tspan></textPath></text><text
     xml:space="preserve"
     style="font-style:normal;font-variant:normal;font-weight:normal;font-stretch:normal;font-size:16px;font-family:'Times New Roman';-inkscape-font-specification:'Times New Roman, ';fill:#000000;fill-opacity:1;stroke:#000000;stroke-width:1.014;stroke-dasharray:none;stroke-opacity:1"
     id="text59748-9"><textPath
       xlink:href="#path72628"
       id="textPath72943"><tspan
         id="tspan59746-6">scalar</tspan></textPath></text><text
     xml:space="preserve"
     style="font-style:normal;font-variant:normal;font-weight:normal;font-stretch:normal;font-size:16px;font-family:'Times New Roman';-inkscape-font-specification:'Times New Roman, ';fill:#000000;fill-opacity:1;stroke:#000000;stroke-width:1.014;stroke-dasharray:none;stroke-opacity:1"
     id="text59748-3"
     transform="translate(877.74066,0.61760323)"><textPath
       xlink:href="#path59222"
       id="textPath60787-3"><tspan
         id="tspan59746-9"> vector</tspan></textPath></text><path
     style="fill:#000000;stroke-width:0.213458"
     d="m 613.98609,398.33684 c -0.0561,-0.14675 -0.0771,-6.41442 -0.0467,-13.92816 l 0.0553,-13.66134 0.48028,-0.0682 0.48028,-0.0682 v 13.99637 c 0,13.92615 -0.002,13.99638 -0.43362,13.99638 -0.23849,0 -0.4795,-0.12008 -0.53559,-0.26682 z m 15.48438,-0.14564 c 0,-0.24317 1.10465,-3.33176 2.45477,-6.8635 1.35013,-3.53175 2.45478,-6.55517 2.45478,-6.71871 0,-0.16355 -1.10465,-3.20417 -2.45478,-6.75694 -1.35012,-3.55276 -2.45477,-6.63543 -2.45477,-6.85036 0,-0.28207 0.13211,-0.3718 0.47489,-0.32257 0.41368,0.0594 0.81424,0.96156 3.10841,7.00078 l 2.63353,6.93256 -2.65621,6.94224 c -2.24859,5.87686 -2.72562,6.9527 -3.10842,7.01044 -0.33703,0.0509 -0.4522,-0.0444 -0.4522,-0.37394 z m -7.63913,-6.52091 c -0.82379,-0.36431 -1.41824,-1.55343 -1.22237,-2.44522 0.0704,-0.32042 0.69564,-2.08646 1.38947,-3.92453 0.69384,-1.83808 1.32499,-3.68026 1.40256,-4.09374 0.24737,-1.31866 -0.65143,-1.7987 -1.81564,-0.96971 -0.50019,0.35616 -1.28026,1.78141 -1.80623,3.30008 -0.10128,0.29244 -0.20738,0.3436 -0.37172,0.17926 -0.60638,-0.60638 1.07093,-3.54109 2.42371,-4.24065 1.3674,-0.7071 3.15673,0.38975 3.15673,1.93506 0,0.38773 -0.62876,2.37275 -1.39723,4.41118 -1.59313,4.22586 -1.73861,5.36326 -0.70135,5.4832 0.82044,0.0949 1.79386,-0.87763 2.412,-2.40969 0.51693,-1.28123 0.96914,-1.76655 0.96525,-1.03594 -0.006,1.08091 -1.90363,3.90787 -2.62921,3.91632 -0.13772,0.002 -0.44251,0.0483 -0.67731,0.10381 -0.23481,0.0555 -0.7427,-0.0388 -1.12866,-0.20943 z m 2.23152,-16.47591 c -0.0782,-0.0782 -0.1423,-0.39957 -0.1423,-0.71402 0,-0.99927 1.23129,-1.66924 1.87843,-1.0221 0.37723,0.37722 0.31172,1.1216 -0.13421,1.52516 -0.39106,0.3539 -1.3347,0.47818 -1.60192,0.21096 z"
     id="path66030" /><path
     style="fill:#000000;stroke-width:0.19982"
     d="m 1492.3146,398.93621 c -0.053,-0.13738 -0.072,-6.00459 -0.044,-13.03825 l 0.052,-12.78847 0.4496,-0.0639 0.4496,-0.0639 v 13.1021 c 0,13.03637 0,13.1021 -0.4059,13.1021 -0.2233,0 -0.4489,-0.1124 -0.5014,-0.24977 z m 18.0918,-0.12213 c 0,-0.21983 1.0341,-3.1136 2.2979,-6.4306 1.2639,-3.31699 2.298,-6.15894 2.298,-6.31544 0,-0.1565 -1.0341,-3.00325 -2.298,-6.3261 -1.2638,-3.32286 -2.2979,-6.20325 -2.2979,-6.40086 0,-0.25691 0.1261,-0.3411 0.4425,-0.29544 0.3844,0.0555 0.7672,0.91601 2.9123,6.54624 l 2.4697,6.48238 -2.4856,6.50591 c -2.1144,5.5344 -2.5493,6.51544 -2.9122,6.56975 -0.3148,0.0471 -0.4267,-0.041 -0.4267,-0.33584 z m -9.7196,-6.01313 c -0.9772,-0.23303 -2.0054,-0.95735 -2.5093,-1.7677 -0.3908,-0.62861 -0.4596,-1.00842 -0.4596,-2.53763 0,-1.5823 0.069,-1.93382 0.5711,-2.92559 1.8561,-3.66293 5.5694,-5.43276 8.1838,-3.90058 2.0255,1.18703 2.5339,4.1749 1.1686,6.86748 -1.1117,2.19217 -2.617,3.5391 -4.6202,4.134 -1.1657,0.34615 -1.3784,0.35799 -2.3344,0.13002 z m 2.1884,-0.67985 c 0.3568,-0.14905 1.0715,-0.74134 1.5884,-1.31619 0.7644,-0.85019 1.0537,-1.40109 1.5508,-2.95286 1.2877,-4.02006 0.5311,-6.47511 -1.9108,-6.19989 -2.2423,0.25275 -3.8519,2.46838 -4.6086,6.34391 -0.6426,3.29109 0.8925,5.16446 3.3802,4.12503 z"
     id="path66714" /><path
     style="fill:#000000;fill-opacity:0;stroke:#000000;stroke-width:0.586385;stroke-dasharray:none;stroke-opacity:0"
     id="path72628"
     sodipodi:type="arc"
     sodipodi:cx="946.00989"
     sodipodi:cy="-140.38713"
     sodipodi:rx="32.962482"
     sodipodi:ry="32.962482"
     sodipodi:start="3.9106061"
     sodipodi:end="3.9093025"
     sodipodi:open="true"
     sodipodi:arc-type="arc"
     d="m 922.32314,-163.31012 a 32.962482,32.962482 0 0 1 46.60202,-0.77122 32.962482,32.962482 0 0 1 0.78641,46.60175 32.962482,32.962482 0 0 1 -46.6015,0.8016 32.962482,32.962482 0 0 1 -0.81679,-46.60123"
     transform="rotate(15.55863)" /><text
     xml:space="preserve"
     style="font-style:normal;font-variant:normal;font-weight:normal;font-stretch:normal;font-size:16px;font-family:'Times New Roman';-inkscape-font-specification:'Times New Roman, ';fill:#000000;fill-opacity:0;stroke:#000000;stroke-width:1.014;stroke-dasharray:none;stroke-opacity:1"
     x="942.5"
     y="121.5"
     id="text73054"><tspan
       sodipodi:role="line"
       id="tspan73052"
       x="942.5"
       y="121.5" /></text><text
     xml:space="preserve"
     style="font-style:normal;font-variant:normal;font-weight:normal;font-stretch:normal;font-size:16px;font-family:'Times New Roman';-inkscape-font-specification:'Times New Roman, ';fill:#000000;fill-opacity:1;stroke:#000000;stroke-width:1.014;stroke-dasharray:none;stroke-opacity:1"
     x="911.10706"
     y="118.26361"
     id="text73266"><tspan
       sodipodi:role="line"
       id="tspan73264"
       x="911.10706"
       y="118.26361" /></text><path
     style="fill:#000000;fill-opacity:0;stroke:#000000;stroke-width:1.014;stroke-dasharray:none;stroke-opacity:1;marker-end:url(#Cap4);marker-mid:"
     d="m 642,387 c 42.00764,7.49442 61.56164,-21.09736 77.5,-55.5"
     id="path81677"
     sodipodi:nodetypes="cc" /><path
     style="fill:#000000;fill-opacity:0;stroke:#000000;stroke-width:1.014;stroke-dasharray:none;stroke-opacity:1;marker-start:url(#marker87286);marker-end:url(#TriangleStart-1-2-0)"
     d="M 787,205 C 816.23078,134.21932 864.50832,69.042887 926.5,61"
     id="path87114"
     sodipodi:nodetypes="cc" /><path
     style="fill:#000000;stroke-width:0.183937"
     d="m 949.58149,71.959155 c -0.0931,-0.150676 1.80229,-8.112887 2.30844,-9.697258 0.21549,-0.674524 0.67508,-0.921547 1.03848,-0.558154 0.21519,0.215195 0.1687,0.58869 -0.30857,2.479144 -0.56177,2.225194 -0.67865,3.250442 -0.41741,3.661302 0.23226,0.365271 1.01811,0.56144 1.6098,0.401854 1.1025,-0.29736 1.53483,-1.016174 2.20173,-3.660797 0.62234,-2.46789 0.93102,-3.077754 1.45583,-2.876366 0.40421,0.155107 0.36897,0.567992 -0.26164,3.065878 -0.3035,1.202147 -0.55181,2.480265 -0.55181,2.840259 0,0.579392 0.054,0.654542 0.47018,0.654542 0.45887,0 0.74065,-0.429033 1.25845,-1.916112 0.0808,-0.231901 0.18493,-0.290509 0.30426,-0.171174 0.24069,0.240683 -0.26198,1.664739 -0.78362,2.219999 -0.55523,0.59102 -1.50024,0.564199 -2.07777,-0.05897 l -0.44305,-0.478061 -0.6058,0.43208 c -0.46101,0.328812 -0.84759,0.431498 -1.61745,0.429643 -0.55641,-0.0012 -1.1452,-0.06794 -1.30844,-0.147998 -0.24891,-0.122082 -0.36213,0.114991 -0.7019,1.46972 -0.22282,0.888404 -0.49257,1.720641 -0.59944,1.849415 -0.22723,0.273779 -0.8159,0.310826 -0.97027,0.06106 z m -9.73813,-6.824115 c -0.72393,-0.21655 -1.71222,-1.207594 -1.96349,-1.968978 -0.84956,-2.57417 0.69013,-6.500281 3.16085,-8.059976 1.57738,-0.995756 2.83592,-0.961923 3.93759,0.105852 l 0.56028,0.543051 0.78313,-3.154529 c 0.86085,-3.467564 0.86251,-3.452432 -0.3797,-3.457505 -0.73022,-0.003 -0.9888,-0.441933 -0.36787,-0.624455 0.60189,-0.176924 3.35685,-0.346207 3.35685,-0.206266 0,0.0766 -0.82772,3.399815 -1.83937,7.384913 -1.01165,3.985097 -1.83937,7.564921 -1.83937,7.955164 0,0.827137 0.3593,1.210647 0.98669,1.053179 0.54639,-0.137133 0.88893,-0.652581 1.29856,-1.954033 0.17513,-0.55641 0.35609,-1.128957 0.40214,-1.27233 0.0604,-0.187922 0.13961,-0.204798 0.28394,-0.06046 0.14433,0.144336 0.0933,0.55209 -0.18269,1.460869 -0.49507,1.629905 -1.19872,2.356768 -2.25471,2.329078 -0.77132,-0.02019 -1.53092,-0.543895 -1.73875,-1.198695 -0.14586,-0.459575 -0.37562,-0.426292 -0.96446,0.139722 -0.58794,0.565151 -1.81718,1.173717 -2.33717,1.157081 -0.20233,-0.0065 -0.60843,-0.08373 -0.90245,-0.171679 z m 2.0768,-0.717317 c 0.92002,-0.469361 1.80056,-1.491787 2.02697,-2.353616 0.10003,-0.380698 0.43678,-1.709945 0.74835,-2.953881 l 0.5665,-2.261703 -0.35543,-0.803505 c -1.08968,-2.463386 -3.86309,-1.003625 -4.96106,2.611209 -0.61583,2.027486 -0.81,3.159819 -0.72258,4.213949 0.14471,1.745043 1.1639,2.3298 2.69725,1.547547 z"
     id="path88803" /><path
     style="fill:#000000;stroke-width:0.197967"
     d="m 771.87709,269.93393 c -0.24233,-0.16524 -0.20266,-0.4558 0.22374,-1.63957 0.35309,-0.98017 0.4651,-1.57338 0.35147,-1.8612 -0.19699,-0.49896 -12.23011,-9.81929 -12.70433,-9.84022 -0.2599,-0.0115 -0.4356,0.313 -1.0215,1.88617 -1.11695,2.9991 -0.94457,3.95068 1.07423,5.9296 1.17348,1.15027 1.41616,1.48333 1.15557,1.58586 -0.0889,0.0351 -1.14373,-0.81919 -2.34403,-1.89816 l -2.18239,-1.96178 3.11417,-7.15494 c 2.44129,-5.60897 3.16214,-7.13116 3.33614,-7.04488 0.12208,0.0605 1.19914,0.74957 2.39344,1.53116 2.71296,1.77545 2.91903,2.32083 0.39114,1.03521 -2.0755,-1.05553 -2.56738,-1.02901 -3.3988,0.18339 -0.67981,0.99129 -1.63829,3.19521 -1.57301,3.61705 0.0688,0.44559 12.37218,9.9391 12.80119,9.87773 0.19308,-0.0279 0.5592,-0.52579 0.97565,-1.32766 0.51122,-0.98431 0.73004,-1.25584 0.93885,-1.16496 0.23265,0.10127 0.017,0.7247 -1.48235,4.28331 -1.64299,3.89975 -1.77337,4.15199 -2.04916,3.96393 z m -15.88847,31.10502 c -5.15395,1.82725 -10.95687,1.90346 -17.09106,0.22449 -9.25987,-2.53454 -17.20242,-7.85299 -21.42876,-14.349 -1.26857,-1.94984 -2.60192,-5.18316 -2.36341,-5.73117 0.10287,-0.23633 0.26562,-0.39549 0.36169,-0.35368 0.096,0.0417 0.48417,0.74779 0.86245,1.56885 2.18364,4.73949 6.0947,8.77268 11.74391,12.11061 3.86722,2.28501 9.33834,4.5356 13.42908,5.52416 5.30059,1.28093 10.70483,1.21387 14.81113,-0.18381 0.88032,-0.29964 1.69017,-0.50581 1.79967,-0.45816 0.10948,0.0477 0.11371,0.28279 0.009,0.52252 -0.13447,0.30896 -0.75574,0.63655 -2.13405,1.12519 z m 34.2384,-75.54397 c -0.13235,-0.0576 -0.34653,-0.40261 -0.47594,-0.76667 -0.12936,-0.3641 -0.62063,-1.33926 -1.09156,-2.16708 -2.40549,-4.22847 -5.75792,-7.52774 -10.7215,-10.55149 -2.47852,-1.50988 -8.62473,-4.23612 -11.32334,-5.02261 -6.76669,-1.97213 -12.38908,-2.11189 -17.50401,-0.43515 -0.75482,0.24744 -1.43779,0.42144 -1.5177,0.38667 -0.0799,-0.0348 -0.0608,-0.25709 0.0422,-0.49397 0.38598,-0.8868 5.6319,-2.36812 8.98484,-2.53711 5.82798,-0.29371 12.63436,1.36011 18.79056,4.56577 7.30929,3.80611 12.06575,8.47902 14.61405,14.35738 0.58318,1.34532 0.76727,2.02407 0.63277,2.33313 -0.1049,0.24095 -0.29734,0.38904 -0.43036,0.33113 z m -57.6362,103.3114 c -1.13221,1.11415 -3.01615,-0.0102 -2.39775,-1.43107 0.40384,-0.92782 1.63056,-0.41465 1.71593,0.71782 l 0.0461,0.61105 0.44903,-0.45227 c 0.66017,-0.66497 0.6418,-1.36915 -0.0577,-2.21229 -0.54979,-0.66262 -8.91749,-6.59167 -11.10572,-7.8691 l -0.85725,-0.50044 -0.44553,1.02363 c -0.33686,0.77395 -0.50984,0.99565 -0.70915,0.90889 -0.19653,-0.0855 -0.15197,-0.40885 0.17501,-1.27019 l 0.43863,-1.15546 -1.749,-1.2243 c -2.35241,-1.64671 -3.17531,-2.68726 -3.27626,-4.14289 -0.0811,-1.17049 0.98846,-2.72658 1.84813,-2.68863 1.18456,0.0523 1.89664,1.03088 1.38881,1.90863 -0.23594,0.4078 -0.38226,0.45744 -0.87625,0.29724 -0.45159,-0.14645 -0.63189,-0.34081 -0.75595,-0.81482 -0.20367,-0.77813 -0.26518,-0.80294 -0.67417,-0.27205 -0.45355,0.58872 -0.43235,1.52876 0.0455,2.02098 0.3634,0.37427 4.24042,3.15782 4.64143,3.33235 0.0948,0.0412 0.42113,-0.49681 0.7253,-1.19566 0.43893,-1.00844 0.60922,-1.24617 0.82531,-1.15213 0.21769,0.0948 0.15417,0.38989 -0.31668,1.47168 l -0.58896,1.35317 0.62969,0.41344 c 4.13082,2.71222 9.00338,6.25855 9.91793,7.21845 1.985,2.08343 2.3059,3.78311 0.96362,5.10397 z m 3.59781,-11.41221 c -0.15749,-0.007 -1.31168,-0.80382 -2.56481,-1.77082 -2.5554,-1.97189 -3.10643,-2.27756 -3.4591,-1.91886 -0.3867,0.39332 -0.18895,0.9245 0.6215,1.66926 0.76582,0.70378 0.98152,1.26998 0.38092,0.99998 -0.58542,-0.26318 -1.54325,-1.47772 -1.64798,-2.08964 -0.0853,-0.49851 -0.0225,-0.68241 0.39088,-1.14505 0.2709,-0.30314 0.70988,-0.56613 0.97553,-0.58444 0.26563,-0.0182 0.52503,-0.046 0.57641,-0.0621 0.0513,-0.0164 -0.009,-0.3735 -0.13424,-0.79467 -0.43938,-1.47784 0.0938,-2.99441 1.23311,-3.50753 0.92399,-0.41613 1.60758,-0.11183 3.49917,1.55801 2.05152,1.81094 2.2626,1.92546 2.50828,1.36094 0.22605,-0.51931 -0.11543,-1.35734 -0.87643,-2.15082 -0.41727,-0.43509 -0.49613,-0.62975 -0.28826,-0.71155 0.40041,-0.15755 1.42025,0.99983 1.69485,1.92346 0.27844,0.93653 -0.0972,1.82535 -0.89171,2.10966 -0.77544,0.27752 -1.09728,0.11668 -2.75305,-1.37653 -2.58619,-2.33216 -3.86086,-2.33114 -3.78486,0.003 0.0389,1.19449 0.84611,2.24729 2.94244,3.83762 1.02663,0.77881 1.93381,1.54062 2.01597,1.69291 0.19846,0.36787 -0.0789,0.97312 -0.43862,0.95724 z m 2.03588,-30.54578 -0.4538,-0.19751 14.65552,-33.67174 14.65554,-33.67176 0.4538,0.19753 0.4538,0.19751 -14.65554,33.67173 -14.65553,33.67175 z M 748.979,252.60621 c -0.48752,-0.0214 -8.50852,-6.21144 -8.81673,-6.80401 -0.27947,-0.53733 0.0705,-1.0426 0.57473,-0.82983 0.17871,0.0753 1.27642,0.8601 2.43934,1.74376 1.92159,1.46015 2.17377,1.6046 2.76504,1.58405 1.09921,-0.0383 1.60474,-1.34378 1.04932,-2.70988 -0.26472,-0.65113 -0.69058,-1.07762 -2.35482,-2.35834 -1.1174,-0.85989 -2.14776,-1.71038 -2.2897,-1.88994 -0.27994,-0.35417 -0.10552,-0.99693 0.28581,-1.05331 0.13348,-0.0192 1.35621,0.81563 2.71717,1.85522 1.36096,1.0396 2.63414,1.89724 2.82929,1.90585 0.19516,0.009 0.42624,-0.1484 0.51351,-0.34888 0.17939,-0.41216 -0.16101,-0.99332 -1.02187,-1.74465 -0.64875,-0.5662 -0.66849,-0.94863 -0.0343,-0.66523 0.6357,0.2841 1.61703,1.47638 1.66091,2.01798 0.0571,0.7101 -0.61872,1.60553 -1.30069,1.72224 l -0.57114,0.0978 0.21514,0.7236 c 0.27599,0.92826 0.0379,1.95447 -0.63923,2.75583 -0.29354,0.34734 -0.51658,0.66352 -0.49568,0.70261 0.0209,0.039 0.6929,0.57156 1.49334,1.18327 0.80043,0.6117 1.4747,1.23553 1.4984,1.38626 0.0715,0.4556 -0.1332,0.74261 -0.51781,0.72563 z m -12.00719,25.11848 c -0.10013,0.0106 -3.25106,-0.1258 -7.00207,-0.30252 l -6.81999,-0.32134 -4.65914,-4.55619 c -2.56253,-2.50592 -4.79558,-4.75884 -4.96233,-5.00651 -0.34597,-0.51388 -0.15016,-0.86795 0.3964,-0.71708 0.20373,0.0563 2.40887,2.11547 4.90031,4.57612 2.49146,2.46066 4.64954,4.53395 4.79573,4.6073 0.1462,0.0733 3.16722,0.26079 6.71337,0.41652 3.54615,0.15573 6.56391,0.36288 6.70615,0.46034 0.27953,0.19157 0.22914,0.81264 -0.0684,0.84336 z m 16.81526,-39.07386 c -0.18432,-0.008 -5.50531,-2.26512 -11.82446,-5.01551 -9.83773,-4.28184 -11.50437,-5.05244 -11.59371,-5.36054 -0.0575,-0.19787 -0.0146,-0.42212 0.0952,-0.49829 0.13533,-0.094 4.02261,1.52545 12.07833,5.03168 11.53398,5.02013 11.87445,5.18017 11.72922,5.51381 -0.0823,0.189 -0.30035,0.33698 -0.48463,0.32885 z m 5.93822,-13.18942 c -0.35492,0.13961 -0.81382,-0.26455 -5.24929,-4.62372 -2.49405,-2.45114 -4.66282,-4.51238 -4.81951,-4.58059 -0.15668,-0.0682 -3.15548,-0.2561 -6.66398,-0.41756 -3.5085,-0.16146 -6.50898,-0.35009 -6.66775,-0.4192 -0.41711,-0.18156 -0.41978,-0.60758 -0.005,-0.77085 0.19611,-0.0771 3.38561,0.002 7.08778,0.17497 l 6.73123,0.31524 3.35695,3.29344 c 6.16106,6.04447 6.60259,6.50154 6.50257,6.73136 -0.0547,0.12571 -0.17763,0.25934 -0.27317,0.29691 z m -9.24899,4.42763 c -1.32482,0.46401 -1.55297,0.32481 -5.07044,-3.09337 -1.31114,-1.27412 -2.61714,-2.38344 -3.02657,-2.57076 -0.68716,-0.31439 -0.73488,-0.30305 -1.0401,0.24752 -0.26102,0.4708 -0.25157,0.73675 0.0513,1.44491 0.20415,0.47734 0.73386,1.21141 1.17714,1.6313 0.4433,0.41987 0.7951,0.88012 0.78183,1.02276 -0.067,0.71982 -1.83235,-1.08589 -2.38985,-2.44449 -0.64503,-1.57198 0.0586,-3.1094 1.46606,-3.20347 1.00969,-0.0679 1.47449,0.25405 4.2474,2.93837 3.50321,3.39131 4.60583,3.87023 4.5404,1.97206 -0.0265,-0.76736 -0.7563,-1.91934 -1.78439,-2.81638 -0.64916,-0.56644 -0.6682,-0.94695 -0.0334,-0.66737 0.69162,0.30461 1.84186,1.76994 2.15387,2.74385 0.39481,1.23249 -0.0703,2.4438 -1.07327,2.79506 z m -18.19411,41.85044 c -0.14784,-0.0644 -0.22233,-0.33967 -0.16555,-0.6118 0.0568,-0.27215 0.15108,-0.72528 0.20947,-1.00695 0.23772,-1.14662 -0.0291,-1.41289 -6.26734,-6.2549 -3.25562,-2.52694 -6.06372,-4.60081 -6.24023,-4.6086 -0.21066,-0.009 -0.4704,0.27701 -0.7561,0.83347 -0.31408,0.61172 -0.51099,0.81464 -0.70749,0.72911 -0.22288,-0.097 -0.12005,-0.49369 0.56667,-2.18636 0.63128,-1.55602 0.90506,-2.06225 1.1061,-2.04526 0.14693,0.0124 3.33063,0.90856 7.07487,1.99143 3.74426,1.08286 6.9767,1.97512 7.18319,1.98277 0.27897,0.0103 -0.90019,-1.87076 -4.58739,-7.31817 -2.72958,-4.03263 -4.98573,-7.44356 -5.01366,-7.57983 -0.028,-0.13626 0.33275,-1.13238 0.80153,-2.2136 0.76959,-1.77502 0.88062,-1.94655 1.14366,-1.76711 0.22483,0.15339 0.20836,0.44778 -0.0722,1.28981 -0.21548,0.64671 -0.28711,1.20119 -0.17589,1.36146 0.31112,0.44828 12.58943,9.82274 12.82164,9.78928 0.11832,-0.018 0.39097,-0.4346 0.60567,-0.92788 0.3377,-0.77586 0.43935,-0.87556 0.7534,-0.73888 0.34881,0.15182 0.31038,0.27903 -0.98006,3.24383 -1.09534,2.51661 -1.38972,3.06552 -1.59595,2.97578 -0.32289,-0.14055 -0.30028,-0.60331 0.0712,-1.45676 0.16196,-0.3721 0.25182,-0.85759 0.19969,-1.07885 -0.0653,-0.27708 -2.03837,-1.88248 -6.33784,-5.15663 -3.43369,-2.61488 -6.2755,-4.74161 -6.31511,-4.72606 -0.0397,0.0156 2.34296,3.58203 5.29462,7.92553 2.95167,4.34351 5.43682,8.06133 5.5226,8.26182 0.0982,0.22972 0.0652,0.39745 -0.0894,0.45349 -0.13497,0.0489 -3.65593,-0.89245 -7.82441,-2.09196 -4.16847,-1.19952 -7.7489,-2.18898 -7.9565,-2.19882 -0.22995,-0.011 1.99516,1.8044 5.69356,4.64496 3.33905,2.56456 6.21632,4.66925 6.39391,4.67709 0.34111,0.015 0.80795,-0.37386 1.33727,-1.11404 0.22106,-0.30913 0.38913,-0.3787 0.54492,-0.22553 0.33407,0.32847 -1.83779,5.3227 -2.23882,5.14816 z m 5.54873,-50.30913 c -0.86171,0.33907 -1.6367,-0.80407 -1.1341,-1.67279 0.57988,-1.00228 2.04483,0.1756 1.57136,1.26343 -0.0685,0.1575 -0.26531,0.34171 -0.43726,0.40936 z"
     id="path89405" /><path
     style="fill:#000000;fill-opacity:0;stroke:#000000;stroke-width:1.014;stroke-dasharray:none;stroke-opacity:1;marker-start:url(#marker96141)"
     d="M 971.50253,60.757359 C 1157.6689,60.056301 1176.9066,384.57508 1310.2426,384.96878"
     id="path95575"
     sodipodi:nodetypes="cc" /><path
     style="fill:#000000;stroke-width:0.161427"
     d="m 1326.5439,417.74766 c -0.046,-0.12013 0.4102,-2.17226 1.014,-4.56031 1.0295,-4.07173 1.1215,-4.34524 1.4796,-4.39591 0.21,-0.0297 0.4427,0.007 0.517,0.0812 0.074,0.0743 -0.083,0.9982 -0.3494,2.05296 -0.5905,2.33667 -0.5835,3.28867 0.027,3.62977 0.5496,0.3072 1.1527,0.14233 1.8615,-0.50893 0.5089,-0.46756 0.6204,-0.73737 1.1134,-2.69458 0.5402,-2.14524 0.8154,-2.66682 1.3075,-2.47802 0.3283,0.12602 0.2894,0.46393 -0.3419,2.97083 -0.4359,1.73134 -0.5285,2.33041 -0.3978,2.57462 0.094,0.17504 0.2404,0.31826 0.3261,0.31826 0.3077,0 0.7877,-0.64104 0.9605,-1.28289 0.1084,-0.40259 0.2711,-0.65423 0.423,-0.65423 0.1811,0 0.2173,0.0966 0.1358,0.36321 -0.2314,0.7579 -0.5213,1.35423 -0.7877,1.62068 -0.4158,0.41584 -1.3191,0.35466 -1.7955,-0.12161 l -0.3976,-0.39771 -0.5861,0.39771 c -0.6279,0.42607 -1.6303,0.52792 -2.3822,0.24204 -0.4491,-0.17077 -0.4191,-0.23149 -0.9177,1.85064 -0.1064,0.44392 -0.2644,0.89794 -0.3512,1.00891 -0.2099,0.26821 -0.7528,0.25768 -0.858,-0.0167 z m -10.1435,-17.84021 c -0.066,-0.10696 8.928,-10.85006 10.9206,-13.04415 l 0.3187,-0.35098 -5.676,-7.77449 c -4.0247,-5.51266 -5.6615,-7.87615 -5.6263,-8.12392 l 0.05,-0.34944 h 12.8821 12.8821 l 0.8119,1.85641 c 1.7999,4.11543 1.7713,4.03567 1.4438,4.03567 -0.1802,0 -0.3789,-0.19997 -0.5078,-0.51106 -0.5209,-1.25776 -2.904,-2.97431 -4.993,-3.59652 -2.1188,-0.63106 -3.6973,-0.73329 -11.3377,-0.73427 l -7.3828,-7.9e-4 3.9177,5.36744 c 2.1548,2.9521 4.4055,6.03147 5.0017,6.84305 0.5962,0.81158 1.084,1.52951 1.084,1.5954 0,0.13061 -1.1563,1.51525 -6.9983,8.38066 l -3.8506,4.52499 0.622,0.13619 c 0.3421,0.0749 3.9272,0.10146 7.9669,0.059 7.9059,-0.0831 9.4225,-0.21081 11.6332,-0.97962 0.6182,-0.21498 1.479,-0.61872 1.913,-0.89719 0.9796,-0.62864 2.2373,-1.95512 2.4604,-2.59489 0.1062,-0.30467 0.2794,-0.48099 0.4725,-0.48099 0.2968,0 0.2964,0.0221 -0.015,0.84749 -0.1759,0.46612 -0.7458,1.97344 -1.2663,3.3496 l -0.9463,2.50212 -12.8462,0.0413 c -7.2814,0.0234 -12.8842,-0.0203 -12.9341,-0.10086 z m 44.4599,-3.64751 c 0,-0.49826 1.8808,-8.07384 2.1116,-8.505 0.1789,-0.33427 0.9537,-0.41244 0.9588,-0.0967 0,0.11099 -0.2279,1.14907 -0.5103,2.30685 -0.5596,2.29413 -0.5437,2.81284 0.099,3.23425 0.542,0.3551 1.2636,0.17031 1.9275,-0.49363 0.4591,-0.45911 0.605,-0.82442 1.0609,-2.65824 0.568,-2.28424 0.7912,-2.69836 1.3061,-2.4228 0.3505,0.18753 0.3749,-0.0157 -0.3532,2.92982 -0.5365,2.17045 -0.5704,2.63893 -0.2011,2.78067 0.3602,0.1382 0.8121,-0.30322 1.0394,-1.01506 0.2119,-0.66382 0.4145,-0.93809 0.5748,-0.77789 0.1635,0.16356 -0.2183,1.29931 -0.5999,1.78447 -0.4558,0.5795 -1.335,0.58754 -1.9299,0.0176 l -0.4256,-0.40778 -0.4668,0.36742 c -0.3691,0.2905 -0.6704,0.36714 -1.4396,0.36605 -0.535,-7.8e-4 -1.0832,-0.0566 -1.2182,-0.12408 -0.1999,-0.10001 -0.3193,0.16901 -0.6457,1.45422 -0.377,1.48517 -0.4261,1.57988 -0.8443,1.62799 -0.3834,0.0441 -0.4439,-0.006 -0.4439,-0.36817 z m 33.6443,0.17939 c -0.046,-0.12013 0.4102,-2.17227 1.014,-4.56031 1.0295,-4.07173 1.1215,-4.34524 1.4796,-4.39591 0.21,-0.0297 0.4427,0.007 0.517,0.0812 0.074,0.0743 -0.083,0.9982 -0.3494,2.05296 -0.5906,2.33667 -0.5835,3.28867 0.027,3.62977 0.5495,0.3072 1.1526,0.14232 1.8615,-0.50893 0.5089,-0.46756 0.6204,-0.73737 1.1133,-2.69459 0.5403,-2.14523 0.8155,-2.66681 1.3075,-2.47801 0.3284,0.12602 0.2895,0.46393 -0.3418,2.97083 -0.436,1.73134 -0.5286,2.33041 -0.3979,2.57462 0.094,0.17504 0.2405,0.31826 0.3261,0.31826 0.3078,0 0.7878,-0.64104 0.9606,-1.28289 0.1084,-0.40258 0.2711,-0.65423 0.423,-0.65423 0.1811,0 0.2172,0.0966 0.1358,0.36321 -0.2314,0.7579 -0.5213,1.35423 -0.7877,1.62067 -0.4159,0.41585 -1.3192,0.35467 -1.7955,-0.12161 l -0.3977,-0.3977 -0.586,0.3977 c -0.6279,0.42608 -1.6303,0.52793 -2.3822,0.24205 -0.4492,-0.17078 -0.4191,-0.23149 -0.9178,1.85064 -0.1063,0.44392 -0.2643,0.89793 -0.3512,1.00891 -0.2098,0.26821 -0.7527,0.25768 -0.858,-0.0167 z m -17.9662,-0.79505 c -0.1938,-0.19376 -0.2741,-20.34891 -0.083,-20.84665 0.054,-0.14044 0.2355,-0.25535 0.4035,-0.25535 0.2967,0 0.3057,0.30649 0.3057,10.55618 0,8.81953 -0.037,10.57023 -0.2226,10.64155 -0.1223,0.047 -0.3039,0.004 -0.4035,-0.0957 z m 28.7167,-0.0328 c -0.1409,-0.16987 0.2626,-1.38905 1.773,-5.35593 l 1.9554,-5.13598 -1.9551,-5.12809 c -1.0753,-2.82045 -1.9105,-5.20034 -1.8559,-5.28864 0.055,-0.0883 0.2296,-0.16055 0.3889,-0.16055 0.2315,0 0.6882,1.04461 2.276,5.20602 1.0925,2.8633 1.987,5.28153 1.9877,5.37384 0,0.40105 -3.988,10.55602 -4.1773,10.62869 -0.1156,0.0443 -0.2922,-0.0184 -0.3927,-0.13936 z m -53.2005,-5.15358 c -1.423,-0.61979 -2.0341,-2.57557 -1.4676,-4.69645 0.3209,-1.20102 0.8516,-2.13618 1.7536,-3.08997 1.0026,-1.06007 1.8955,-1.51069 2.9937,-1.51069 0.739,0 0.8901,0.0628 1.3907,0.57819 l 0.5614,0.57819 0.1474,-0.53783 c 0.5543,-2.02347 1.2155,-4.98196 1.132,-5.06542 -0.055,-0.0551 -0.3968,-0.14 -0.7592,-0.18862 -0.4019,-0.0539 -0.6591,-0.17341 -0.6591,-0.3062 0,-0.25513 0.3115,-0.33178 1.8968,-0.46674 1.0309,-0.0878 1.1703,-0.0671 1.1703,0.17344 0,0.1502 -0.6855,3.00579 -1.5234,6.34578 -0.8378,3.33999 -1.5672,6.29617 -1.6209,6.5693 -0.1439,0.73204 0.1441,1.35981 0.6238,1.35981 0.5573,0 1.1251,-0.74951 1.4529,-1.91778 0.1525,-0.54335 0.346,-0.9879 0.4302,-0.9879 0.2222,0 0.1886,0.4678 -0.1047,1.4554 -0.3168,1.06686 -1.1176,1.93483 -1.7842,1.93395 -0.6382,-7.8e-4 -1.4881,-0.55738 -1.7301,-1.13294 l -0.2024,-0.48148 -0.4647,0.48508 c -0.9502,0.99176 -2.2196,1.34587 -3.2365,0.90288 z m 2.32,-0.7043 c 1.116,-0.74953 1.3997,-1.2962 2.0589,-3.96926 0.6693,-2.71358 0.6606,-3.08754 -0.089,-3.83711 -0.5698,-0.5698 -1.2041,-0.60184 -1.9509,-0.0985 -1.2357,0.83273 -2.0417,2.47601 -2.493,5.08261 -0.2431,1.40407 -0.1272,2.44872 0.3276,2.95116 0.4259,0.47066 1.3351,0.41608 2.1464,-0.12887 z m 26.5223,0.62409 c -0.3705,-0.2347 -0.039,-0.49985 0.6251,-0.49985 1.416,0 1.2348,0.40316 3.0014,-6.67774 0.8753,-3.50878 1.5406,-6.43054 1.4783,-6.49279 -0.062,-0.0623 -0.478,-0.14823 -0.9238,-0.19108 -0.5418,-0.052 -0.8107,-0.1514 -0.8107,-0.2995 0,-0.18007 0.5748,-0.2216 3.0671,-0.2216 2.4846,0 3.0671,0.0419 3.0671,0.22045 0,0.15814 -0.3274,0.24388 -1.1582,0.30333 -0.8193,0.0586 -1.2153,0.16091 -1.3532,0.34957 -0.3275,0.44771 -3.3325,12.71846 -3.1577,12.89336 0.091,0.0908 0.9865,0.12806 2.1457,0.0894 1.6805,-0.0561 2.1132,-0.12618 2.7833,-0.4508 1.1434,-0.55387 1.9053,-1.42716 2.6101,-2.99213 0.5721,-1.27029 0.87,-1.66811 0.8772,-1.17145 0.01,0.27465 -1.6319,4.83247 -1.8252,5.08494 -0.1177,0.1539 -1.3469,0.20119 -5.1792,0.19931 -2.7636,-0.002 -5.1249,-0.0659 -5.2473,-0.14338 z"
     id="path97231" /><path
     style="fill:#000000;fill-opacity:0;stroke:#000000;stroke-width:1.014;stroke-dasharray:none;stroke-opacity:1;marker-end:url(#marker96141);marker-start:url(#TriangleStart-1-2-3)"
     d="m 1485,387.5 h -68.5"
     id="path97617" /><circle
     style="fill:#000000;fill-opacity:0;stroke:#000000;stroke-width:1.22389;stroke-dasharray:none;stroke-opacity:0"
     id="path99706"
     cx="68.530838"
     cy="756.81323"
     r="33.64505"
     transform="matrix(-0.49633269,0.8681324,0.8681324,0.49633269,0,0)" /><text
     xml:space="preserve"
     style="font-style:normal;font-variant:normal;font-weight:normal;font-stretch:normal;font-size:16px;font-family:'Times New Roman';-inkscape-font-specification:'Times New Roman, ';fill:#000000;fill-opacity:1;stroke:#000000;stroke-width:1.014;stroke-dasharray:none;stroke-opacity:1"
     id="text99910"
     x="607.05084"
     y="473.70834"><tspan
       id="tspan99908">Input</tspan></text><text
     xml:space="preserve"
     style="font-style:normal;font-variant:normal;font-weight:normal;font-stretch:normal;font-size:16px;font-family:'Times New Roman';-inkscape-font-specification:'Times New Roman, ';fill:#000000;fill-opacity:1;stroke:#000000;stroke-width:1.014;stroke-dasharray:none;stroke-opacity:1"
     id="text99910-0"
     x="1479.6705"
     y="472.80673"><tspan
       id="tspan99908-4">Output</tspan></text><text
     xml:space="preserve"
     style="font-style:normal;font-variant:normal;font-weight:normal;font-stretch:normal;font-size:16px;font-family:'Times New Roman';-inkscape-font-specification:'Times New Roman, ';fill:#000000;fill-opacity:1;stroke:#000000;stroke-width:1.014;stroke-dasharray:none;stroke-opacity:1"
     id="text99910-6"
     x="928.83441"
     y="795.65643"><tspan
       id="tspan99908-44">Latent</tspan></text></svg>
